<mxfile host="Electron" modified="2024-03-29T22:40:32.963Z" agent="Mozilla/5.0 (Windows NT 10.0; Win64; x64) AppleWebKit/537.36 (KHTML, like Gecko) draw.io/24.1.0 Chrome/120.0.6099.109 Electron/28.1.0 Safari/537.36" etag="PRRVTs4J3s7bnUfaFYHU" version="24.1.0" type="device">
  <diagram name="ページ1" id="LE8fIzdrHe0wcv1LTvfw">
    <mxGraphModel dx="1575" dy="942" grid="1" gridSize="10" guides="1" tooltips="1" connect="1" arrows="1" fold="1" page="1" pageScale="1" pageWidth="1600" pageHeight="1200" math="0" shadow="0">
      <root>
        <mxCell id="0" />
        <mxCell id="cFaB45KztUIKXS-_cTrr-4" value="背景" style="locked=1;" parent="0" visible="0" />
        <mxCell id="cFaB45KztUIKXS-_cTrr-5" value="" style="rounded=0;whiteSpace=wrap;html=1;strokeWidth=3;" parent="cFaB45KztUIKXS-_cTrr-4" vertex="1">
          <mxGeometry x="1" y="1" width="1595" height="1180" as="geometry" />
        </mxCell>
        <mxCell id="cFaB45KztUIKXS-_cTrr-6" value="" style="rounded=0;whiteSpace=wrap;html=1;fillColor=#B3B3B3;fontColor=#333333;strokeColor=#666666;" parent="cFaB45KztUIKXS-_cTrr-4" vertex="1">
          <mxGeometry width="1595" height="60" as="geometry" />
        </mxCell>
        <mxCell id="cFaB45KztUIKXS-_cTrr-7" value="&lt;font style=&quot;font-size: 48px;&quot;&gt;×&lt;/font&gt;" style="rounded=0;whiteSpace=wrap;html=1;" parent="cFaB45KztUIKXS-_cTrr-4" vertex="1">
          <mxGeometry x="1550" y="10" width="40" height="40" as="geometry" />
        </mxCell>
        <mxCell id="cFaB45KztUIKXS-_cTrr-8" value="" style="rounded=0;whiteSpace=wrap;html=1;" parent="cFaB45KztUIKXS-_cTrr-4" vertex="1">
          <mxGeometry x="830" y="670" width="120" height="60" as="geometry" />
        </mxCell>
        <mxCell id="cFaB45KztUIKXS-_cTrr-9" value="ウインドウ" style="locked=1;" parent="0" />
        <mxCell id="cFaB45KztUIKXS-_cTrr-10" value="" style="rounded=0;whiteSpace=wrap;html=1;strokeWidth=3;" parent="cFaB45KztUIKXS-_cTrr-9" vertex="1">
          <mxGeometry x="1" y="1" width="1595" height="5479" as="geometry" />
        </mxCell>
        <mxCell id="cFaB45KztUIKXS-_cTrr-11" value="" style="rounded=0;whiteSpace=wrap;html=1;fillColor=#B3B3B3;fontColor=#333333;strokeColor=#666666;" parent="cFaB45KztUIKXS-_cTrr-9" vertex="1">
          <mxGeometry width="1595" height="60" as="geometry" />
        </mxCell>
        <mxCell id="cFaB45KztUIKXS-_cTrr-12" value="&lt;font style=&quot;font-size: 48px;&quot;&gt;×&lt;/font&gt;" style="rounded=0;whiteSpace=wrap;html=1;" parent="cFaB45KztUIKXS-_cTrr-9" vertex="1">
          <mxGeometry x="1550" y="10" width="40" height="40" as="geometry" />
        </mxCell>
        <mxCell id="cFaB45KztUIKXS-_cTrr-14" value="名称未設定レイヤ" style="" parent="0" />
        <mxCell id="1jmIK8rgcfgbq0RtJ0nT-0" value="&lt;span style=&quot;font-size: 30px;&quot;&gt;政治団体の名称&lt;/span&gt;" style="rounded=0;whiteSpace=wrap;html=1;align=right;dashed=1;dashPattern=8 8;verticalAlign=bottom;" parent="cFaB45KztUIKXS-_cTrr-14" vertex="1">
          <mxGeometry x="40" y="146" width="290" height="46" as="geometry" />
        </mxCell>
        <mxCell id="1jmIK8rgcfgbq0RtJ0nT-1" value="&lt;span style=&quot;font-size: 30px;&quot;&gt;ランダム政治団体&lt;/span&gt;" style="rounded=0;whiteSpace=wrap;html=1;align=left;" parent="cFaB45KztUIKXS-_cTrr-14" vertex="1">
          <mxGeometry x="350" y="144" width="550" height="48" as="geometry" />
        </mxCell>
        <mxCell id="1jmIK8rgcfgbq0RtJ0nT-3" value="&lt;span style=&quot;font-size: 30px;&quot;&gt;保存&lt;/span&gt;" style="rounded=1;whiteSpace=wrap;html=1;" parent="cFaB45KztUIKXS-_cTrr-14" vertex="1">
          <mxGeometry x="1349" y="5360" width="210" height="60" as="geometry" />
        </mxCell>
        <mxCell id="1jmIK8rgcfgbq0RtJ0nT-4" value="&lt;span style=&quot;font-size: 30px;&quot;&gt;キャンセル&lt;/span&gt;" style="rounded=1;whiteSpace=wrap;html=1;" parent="cFaB45KztUIKXS-_cTrr-14" vertex="1">
          <mxGeometry x="1099" y="5360" width="210" height="60" as="geometry" />
        </mxCell>
        <mxCell id="1jmIK8rgcfgbq0RtJ0nT-5" value="&lt;span style=&quot;font-size: 30px;&quot;&gt;名称ふりがな&lt;/span&gt;" style="rounded=0;whiteSpace=wrap;html=1;align=right;dashed=1;dashPattern=8 8;verticalAlign=bottom;" parent="cFaB45KztUIKXS-_cTrr-14" vertex="1">
          <mxGeometry x="40" y="206" width="290" height="46" as="geometry" />
        </mxCell>
        <mxCell id="1jmIK8rgcfgbq0RtJ0nT-6" value="&lt;span style=&quot;font-size: 30px;&quot;&gt;らんだむせいじだんたい&lt;/span&gt;" style="rounded=0;whiteSpace=wrap;html=1;align=left;" parent="cFaB45KztUIKXS-_cTrr-14" vertex="1">
          <mxGeometry x="350" y="204" width="890" height="48" as="geometry" />
        </mxCell>
        <mxCell id="1jmIK8rgcfgbq0RtJ0nT-7" value="&lt;span style=&quot;font-size: 30px;&quot;&gt;主たる事務所の所在地&lt;/span&gt;" style="rounded=0;whiteSpace=wrap;html=1;align=right;dashed=1;dashPattern=8 8;verticalAlign=bottom;" parent="cFaB45KztUIKXS-_cTrr-14" vertex="1">
          <mxGeometry x="20" y="396" width="310" height="46" as="geometry" />
        </mxCell>
        <mxCell id="1jmIK8rgcfgbq0RtJ0nT-8" value="&lt;span style=&quot;font-size: 30px;&quot;&gt;123&lt;br&gt;&lt;/span&gt;" style="rounded=0;whiteSpace=wrap;html=1;align=right;" parent="cFaB45KztUIKXS-_cTrr-14" vertex="1">
          <mxGeometry x="350" y="454" width="170" height="48" as="geometry" />
        </mxCell>
        <mxCell id="1jmIK8rgcfgbq0RtJ0nT-9" value="&lt;span style=&quot;font-size: 30px;&quot;&gt;郵便番号&lt;/span&gt;" style="rounded=0;whiteSpace=wrap;html=1;align=right;dashed=1;dashPattern=8 8;verticalAlign=bottom;" parent="cFaB45KztUIKXS-_cTrr-14" vertex="1">
          <mxGeometry x="20" y="456" width="310" height="46" as="geometry" />
        </mxCell>
        <mxCell id="1jmIK8rgcfgbq0RtJ0nT-10" value="&lt;span style=&quot;font-size: 30px;&quot;&gt;456x&lt;br&gt;&lt;/span&gt;" style="rounded=0;whiteSpace=wrap;html=1;align=right;" parent="cFaB45KztUIKXS-_cTrr-14" vertex="1">
          <mxGeometry x="580" y="454" width="170" height="48" as="geometry" />
        </mxCell>
        <mxCell id="1jmIK8rgcfgbq0RtJ0nT-11" value="&lt;span style=&quot;font-size: 30px;&quot;&gt;住所(郵便番号)&lt;/span&gt;" style="rounded=0;whiteSpace=wrap;html=1;align=right;dashed=1;dashPattern=8 8;verticalAlign=bottom;" parent="cFaB45KztUIKXS-_cTrr-14" vertex="1">
          <mxGeometry x="20" y="516" width="310" height="46" as="geometry" />
        </mxCell>
        <mxCell id="1jmIK8rgcfgbq0RtJ0nT-12" value="&lt;span style=&quot;font-size: 30px;&quot;&gt;番地&lt;/span&gt;" style="rounded=0;whiteSpace=wrap;html=1;align=right;dashed=1;dashPattern=8 8;verticalAlign=bottom;" parent="cFaB45KztUIKXS-_cTrr-14" vertex="1">
          <mxGeometry x="20" y="579" width="310" height="46" as="geometry" />
        </mxCell>
        <mxCell id="1jmIK8rgcfgbq0RtJ0nT-13" value="&lt;span style=&quot;font-size: 30px;&quot;&gt;建物&lt;/span&gt;" style="rounded=0;whiteSpace=wrap;html=1;align=right;dashed=1;dashPattern=8 8;verticalAlign=bottom;" parent="cFaB45KztUIKXS-_cTrr-14" vertex="1">
          <mxGeometry x="20" y="641" width="310" height="46" as="geometry" />
        </mxCell>
        <mxCell id="1jmIK8rgcfgbq0RtJ0nT-14" value="&lt;span style=&quot;font-size: 30px;&quot;&gt;組織年月日&lt;/span&gt;" style="rounded=0;whiteSpace=wrap;html=1;align=right;dashed=1;dashPattern=8 8;verticalAlign=bottom;" parent="cFaB45KztUIKXS-_cTrr-14" vertex="1">
          <mxGeometry x="20" y="706" width="310" height="46" as="geometry" />
        </mxCell>
        <mxCell id="1jmIK8rgcfgbq0RtJ0nT-15" value="&lt;font style=&quot;font-size: 30px;&quot;&gt;20221201&lt;/font&gt;" style="rounded=0;whiteSpace=wrap;html=1;align=right;" parent="cFaB45KztUIKXS-_cTrr-14" vertex="1">
          <mxGeometry x="350" y="704" width="250" height="48" as="geometry" />
        </mxCell>
        <mxCell id="1jmIK8rgcfgbq0RtJ0nT-17" value="&lt;span style=&quot;font-size: 30px;&quot;&gt;主な活動地域&lt;/span&gt;" style="rounded=0;whiteSpace=wrap;html=1;align=right;dashed=1;dashPattern=8 8;verticalAlign=bottom;" parent="cFaB45KztUIKXS-_cTrr-14" vertex="1">
          <mxGeometry x="40" y="766" width="290" height="46" as="geometry" />
        </mxCell>
        <mxCell id="1jmIK8rgcfgbq0RtJ0nT-18" value="&lt;span style=&quot;font-size: 30px;&quot;&gt;東京都千代田区&lt;/span&gt;" style="rounded=0;whiteSpace=wrap;html=1;align=left;" parent="cFaB45KztUIKXS-_cTrr-14" vertex="1">
          <mxGeometry x="350" y="764" width="550" height="48" as="geometry" />
        </mxCell>
        <mxCell id="1jmIK8rgcfgbq0RtJ0nT-20" value="&lt;span style=&quot;font-size: 30px;&quot;&gt;東京都千代田区霞ケ浦&lt;/span&gt;" style="rounded=0;whiteSpace=wrap;html=1;align=left;" parent="cFaB45KztUIKXS-_cTrr-14" vertex="1">
          <mxGeometry x="350" y="515" width="550" height="48" as="geometry" />
        </mxCell>
        <mxCell id="1jmIK8rgcfgbq0RtJ0nT-21" value="&lt;span style=&quot;font-size: 30px;&quot;&gt;x丁目y番地&lt;/span&gt;" style="rounded=0;whiteSpace=wrap;html=1;align=left;" parent="cFaB45KztUIKXS-_cTrr-14" vertex="1">
          <mxGeometry x="350" y="581" width="550" height="48" as="geometry" />
        </mxCell>
        <mxCell id="1jmIK8rgcfgbq0RtJ0nT-22" value="&lt;span style=&quot;font-size: 30px;&quot;&gt;zzzabcビル3Fqqq号室&lt;/span&gt;" style="rounded=0;whiteSpace=wrap;html=1;align=left;" parent="cFaB45KztUIKXS-_cTrr-14" vertex="1">
          <mxGeometry x="350" y="643" width="550" height="48" as="geometry" />
        </mxCell>
        <mxCell id="1jmIK8rgcfgbq0RtJ0nT-23" value="&lt;span style=&quot;font-size: 30px;&quot;&gt;支部の有無&lt;/span&gt;" style="rounded=0;whiteSpace=wrap;html=1;align=right;dashed=1;dashPattern=8 8;verticalAlign=bottom;" parent="cFaB45KztUIKXS-_cTrr-14" vertex="1">
          <mxGeometry x="110" y="5110" width="290" height="46" as="geometry" />
        </mxCell>
        <mxCell id="1jmIK8rgcfgbq0RtJ0nT-25" value="&lt;font style=&quot;font-size: 84px;&quot;&gt;○&lt;/font&gt;" style="text;html=1;strokeColor=none;fillColor=none;align=center;verticalAlign=middle;whiteSpace=wrap;rounded=0;fontSize=60;" parent="cFaB45KztUIKXS-_cTrr-14" vertex="1">
          <mxGeometry x="420" y="5118" width="60" height="30" as="geometry" />
        </mxCell>
        <mxCell id="1jmIK8rgcfgbq0RtJ0nT-26" value="&lt;font style=&quot;font-size: 48px;&quot;&gt;●&lt;/font&gt;" style="text;html=1;strokeColor=none;fillColor=none;align=center;verticalAlign=middle;whiteSpace=wrap;rounded=0;fontSize=48;" parent="cFaB45KztUIKXS-_cTrr-14" vertex="1">
          <mxGeometry x="420" y="5120" width="60" height="30" as="geometry" />
        </mxCell>
        <mxCell id="1jmIK8rgcfgbq0RtJ0nT-27" value="&lt;span style=&quot;font-size: 30px;&quot;&gt;有&lt;br&gt;&lt;/span&gt;" style="text;html=1;strokeColor=none;fillColor=none;align=left;verticalAlign=middle;whiteSpace=wrap;rounded=0;" parent="cFaB45KztUIKXS-_cTrr-14" vertex="1">
          <mxGeometry x="479" y="5111" width="275" height="60" as="geometry" />
        </mxCell>
        <mxCell id="1jmIK8rgcfgbq0RtJ0nT-28" value="&lt;font style=&quot;font-size: 84px;&quot;&gt;○&lt;/font&gt;" style="text;html=1;strokeColor=none;fillColor=none;align=center;verticalAlign=middle;whiteSpace=wrap;rounded=0;fontSize=60;" parent="cFaB45KztUIKXS-_cTrr-14" vertex="1">
          <mxGeometry x="529" y="5120" width="60" height="30" as="geometry" />
        </mxCell>
        <mxCell id="1jmIK8rgcfgbq0RtJ0nT-29" value="&lt;span style=&quot;font-size: 30px;&quot;&gt;無&lt;br&gt;&lt;/span&gt;" style="text;html=1;strokeColor=none;fillColor=none;align=left;verticalAlign=middle;whiteSpace=wrap;rounded=0;" parent="cFaB45KztUIKXS-_cTrr-14" vertex="1">
          <mxGeometry x="590" y="5117" width="275" height="56" as="geometry" />
        </mxCell>
        <mxCell id="1jmIK8rgcfgbq0RtJ0nT-30" value="&lt;font style=&quot;font-size: 30px;&quot;&gt;課税上の優遇措置の適用関係&lt;/font&gt;" style="rounded=0;whiteSpace=wrap;html=1;align=right;dashed=1;dashPattern=8 8;verticalAlign=bottom;" parent="cFaB45KztUIKXS-_cTrr-14" vertex="1">
          <mxGeometry x="110" y="5176" width="290" height="80" as="geometry" />
        </mxCell>
        <mxCell id="1jmIK8rgcfgbq0RtJ0nT-31" value="&lt;font style=&quot;font-size: 84px;&quot;&gt;○&lt;/font&gt;" style="text;html=1;strokeColor=none;fillColor=none;align=center;verticalAlign=middle;whiteSpace=wrap;rounded=0;fontSize=60;" parent="cFaB45KztUIKXS-_cTrr-14" vertex="1">
          <mxGeometry x="420" y="5198" width="60" height="30" as="geometry" />
        </mxCell>
        <mxCell id="1jmIK8rgcfgbq0RtJ0nT-32" value="&lt;font style=&quot;font-size: 48px;&quot;&gt;●&lt;/font&gt;" style="text;html=1;strokeColor=none;fillColor=none;align=center;verticalAlign=middle;whiteSpace=wrap;rounded=0;fontSize=48;" parent="cFaB45KztUIKXS-_cTrr-14" vertex="1">
          <mxGeometry x="420" y="5199" width="60" height="30" as="geometry" />
        </mxCell>
        <mxCell id="1jmIK8rgcfgbq0RtJ0nT-33" value="&lt;font style=&quot;font-size: 84px;&quot;&gt;○&lt;/font&gt;" style="text;html=1;strokeColor=none;fillColor=none;align=center;verticalAlign=middle;whiteSpace=wrap;rounded=0;fontSize=60;" parent="cFaB45KztUIKXS-_cTrr-14" vertex="1">
          <mxGeometry x="530" y="5198" width="60" height="30" as="geometry" />
        </mxCell>
        <mxCell id="1jmIK8rgcfgbq0RtJ0nT-34" value="&lt;span style=&quot;font-size: 30px;&quot;&gt;無&lt;br&gt;&lt;/span&gt;" style="text;html=1;strokeColor=none;fillColor=none;align=left;verticalAlign=middle;whiteSpace=wrap;rounded=0;" parent="cFaB45KztUIKXS-_cTrr-14" vertex="1">
          <mxGeometry x="590" y="5189" width="275" height="60" as="geometry" />
        </mxCell>
        <mxCell id="1jmIK8rgcfgbq0RtJ0nT-35" value="&lt;span style=&quot;font-size: 30px;&quot;&gt;有&lt;br&gt;&lt;/span&gt;" style="text;html=1;strokeColor=none;fillColor=none;align=left;verticalAlign=middle;whiteSpace=wrap;rounded=0;" parent="cFaB45KztUIKXS-_cTrr-14" vertex="1">
          <mxGeometry x="480" y="5189" width="275" height="60" as="geometry" />
        </mxCell>
        <mxCell id="1jmIK8rgcfgbq0RtJ0nT-36" value="&lt;span style=&quot;font-size: 30px;&quot;&gt;代表者の氏名&lt;/span&gt;" style="rounded=0;whiteSpace=wrap;html=1;align=right;dashed=1;dashPattern=8 8;verticalAlign=bottom;" parent="cFaB45KztUIKXS-_cTrr-14" vertex="1">
          <mxGeometry x="40" y="267" width="290" height="46" as="geometry" />
        </mxCell>
        <mxCell id="1jmIK8rgcfgbq0RtJ0nT-38" value="&lt;span style=&quot;font-size: 30px;&quot;&gt;－&lt;/span&gt;" style="rounded=0;whiteSpace=wrap;html=1;align=right;dashed=1;dashPattern=8 8;verticalAlign=bottom;" parent="cFaB45KztUIKXS-_cTrr-14" vertex="1">
          <mxGeometry x="531" y="456" width="40" height="46" as="geometry" />
        </mxCell>
        <mxCell id="1jmIK8rgcfgbq0RtJ0nT-39" value="&lt;span style=&quot;font-size: 30px;&quot;&gt;代表者住所&lt;/span&gt;" style="rounded=0;whiteSpace=wrap;html=1;align=right;dashed=1;dashPattern=8 8;verticalAlign=bottom;" parent="cFaB45KztUIKXS-_cTrr-14" vertex="1">
          <mxGeometry x="90" y="1022" width="310" height="46" as="geometry" />
        </mxCell>
        <mxCell id="1jmIK8rgcfgbq0RtJ0nT-40" value="&lt;span style=&quot;font-size: 30px;&quot;&gt;123&lt;br&gt;&lt;/span&gt;" style="rounded=0;whiteSpace=wrap;html=1;align=right;" parent="cFaB45KztUIKXS-_cTrr-14" vertex="1">
          <mxGeometry x="420" y="1080" width="170" height="48" as="geometry" />
        </mxCell>
        <mxCell id="1jmIK8rgcfgbq0RtJ0nT-41" value="&lt;span style=&quot;font-size: 30px;&quot;&gt;郵便番号&lt;/span&gt;" style="rounded=0;whiteSpace=wrap;html=1;align=right;dashed=1;dashPattern=8 8;verticalAlign=bottom;" parent="cFaB45KztUIKXS-_cTrr-14" vertex="1">
          <mxGeometry x="90" y="1082" width="310" height="46" as="geometry" />
        </mxCell>
        <mxCell id="1jmIK8rgcfgbq0RtJ0nT-42" value="&lt;span style=&quot;font-size: 30px;&quot;&gt;456x&lt;br&gt;&lt;/span&gt;" style="rounded=0;whiteSpace=wrap;html=1;align=right;" parent="cFaB45KztUIKXS-_cTrr-14" vertex="1">
          <mxGeometry x="650" y="1080" width="170" height="48" as="geometry" />
        </mxCell>
        <mxCell id="1jmIK8rgcfgbq0RtJ0nT-43" value="&lt;span style=&quot;font-size: 30px;&quot;&gt;住所(郵便番号)&lt;/span&gt;" style="rounded=0;whiteSpace=wrap;html=1;align=right;dashed=1;dashPattern=8 8;verticalAlign=bottom;" parent="cFaB45KztUIKXS-_cTrr-14" vertex="1">
          <mxGeometry x="90" y="1142" width="310" height="46" as="geometry" />
        </mxCell>
        <mxCell id="1jmIK8rgcfgbq0RtJ0nT-44" value="&lt;span style=&quot;font-size: 30px;&quot;&gt;番地&lt;/span&gt;" style="rounded=0;whiteSpace=wrap;html=1;align=right;dashed=1;dashPattern=8 8;verticalAlign=bottom;" parent="cFaB45KztUIKXS-_cTrr-14" vertex="1">
          <mxGeometry x="90" y="1205" width="310" height="46" as="geometry" />
        </mxCell>
        <mxCell id="1jmIK8rgcfgbq0RtJ0nT-45" value="&lt;span style=&quot;font-size: 30px;&quot;&gt;建物&lt;/span&gt;" style="rounded=0;whiteSpace=wrap;html=1;align=right;dashed=1;dashPattern=8 8;verticalAlign=bottom;" parent="cFaB45KztUIKXS-_cTrr-14" vertex="1">
          <mxGeometry x="90" y="1267" width="310" height="46" as="geometry" />
        </mxCell>
        <mxCell id="1jmIK8rgcfgbq0RtJ0nT-46" value="&lt;span style=&quot;font-size: 30px;&quot;&gt;東京都千代田区霞ケ浦&lt;/span&gt;" style="rounded=0;whiteSpace=wrap;html=1;align=left;" parent="cFaB45KztUIKXS-_cTrr-14" vertex="1">
          <mxGeometry x="420" y="1141" width="550" height="48" as="geometry" />
        </mxCell>
        <mxCell id="1jmIK8rgcfgbq0RtJ0nT-47" value="&lt;span style=&quot;font-size: 30px;&quot;&gt;x丁目y番地&lt;/span&gt;" style="rounded=0;whiteSpace=wrap;html=1;align=left;" parent="cFaB45KztUIKXS-_cTrr-14" vertex="1">
          <mxGeometry x="420" y="1207" width="550" height="48" as="geometry" />
        </mxCell>
        <mxCell id="1jmIK8rgcfgbq0RtJ0nT-48" value="&lt;span style=&quot;font-size: 30px;&quot;&gt;zzzabcビル3Fqqq号室&lt;/span&gt;" style="rounded=0;whiteSpace=wrap;html=1;align=left;" parent="cFaB45KztUIKXS-_cTrr-14" vertex="1">
          <mxGeometry x="420" y="1269" width="550" height="48" as="geometry" />
        </mxCell>
        <mxCell id="1jmIK8rgcfgbq0RtJ0nT-49" value="&lt;span style=&quot;font-size: 30px;&quot;&gt;代表者の氏名&lt;/span&gt;" style="rounded=0;whiteSpace=wrap;html=1;align=right;dashed=1;dashPattern=8 8;verticalAlign=bottom;" parent="cFaB45KztUIKXS-_cTrr-14" vertex="1">
          <mxGeometry x="110" y="903" width="290" height="46" as="geometry" />
        </mxCell>
        <mxCell id="1jmIK8rgcfgbq0RtJ0nT-50" value="&lt;span style=&quot;font-size: 30px;&quot;&gt;政治団体　太郎&lt;/span&gt;" style="rounded=0;whiteSpace=wrap;html=1;align=left;" parent="cFaB45KztUIKXS-_cTrr-14" vertex="1">
          <mxGeometry x="420" y="902" width="250" height="48" as="geometry" />
        </mxCell>
        <mxCell id="1jmIK8rgcfgbq0RtJ0nT-51" value="&lt;span style=&quot;font-size: 30px;&quot;&gt;－&lt;/span&gt;" style="rounded=0;whiteSpace=wrap;html=1;align=right;dashed=1;dashPattern=8 8;verticalAlign=bottom;" parent="cFaB45KztUIKXS-_cTrr-14" vertex="1">
          <mxGeometry x="601" y="1082" width="40" height="46" as="geometry" />
        </mxCell>
        <mxCell id="1jmIK8rgcfgbq0RtJ0nT-52" value="&lt;span style=&quot;font-size: 30px;&quot;&gt;生年月日&lt;/span&gt;" style="rounded=0;whiteSpace=wrap;html=1;align=right;dashed=1;dashPattern=8 8;verticalAlign=bottom;" parent="cFaB45KztUIKXS-_cTrr-14" vertex="1">
          <mxGeometry x="90" y="1336" width="310" height="46" as="geometry" />
        </mxCell>
        <mxCell id="1jmIK8rgcfgbq0RtJ0nT-53" value="&lt;font style=&quot;font-size: 30px;&quot;&gt;20221201&lt;/font&gt;" style="rounded=0;whiteSpace=wrap;html=1;align=right;" parent="cFaB45KztUIKXS-_cTrr-14" vertex="1">
          <mxGeometry x="420" y="1334" width="250" height="48" as="geometry" />
        </mxCell>
        <mxCell id="1jmIK8rgcfgbq0RtJ0nT-54" value="&lt;span style=&quot;font-size: 30px;&quot;&gt;選任年月日&lt;/span&gt;" style="rounded=0;whiteSpace=wrap;html=1;align=right;dashed=1;dashPattern=8 8;verticalAlign=bottom;" parent="cFaB45KztUIKXS-_cTrr-14" vertex="1">
          <mxGeometry x="90" y="1406" width="310" height="46" as="geometry" />
        </mxCell>
        <mxCell id="1jmIK8rgcfgbq0RtJ0nT-55" value="&lt;font style=&quot;font-size: 30px;&quot;&gt;20221201&lt;/font&gt;" style="rounded=0;whiteSpace=wrap;html=1;align=right;" parent="cFaB45KztUIKXS-_cTrr-14" vertex="1">
          <mxGeometry x="420" y="1404" width="250" height="48" as="geometry" />
        </mxCell>
        <mxCell id="1jmIK8rgcfgbq0RtJ0nT-56" value="&lt;span style=&quot;font-size: 30px;&quot;&gt;&lt;b&gt;代表者の入力項目&lt;/b&gt;&lt;/span&gt;" style="rounded=0;whiteSpace=wrap;html=1;align=left;dashed=1;dashPattern=8 8;verticalAlign=bottom;" parent="cFaB45KztUIKXS-_cTrr-14" vertex="1">
          <mxGeometry x="50" y="843" width="290" height="46" as="geometry" />
        </mxCell>
        <mxCell id="1jmIK8rgcfgbq0RtJ0nT-57" value="&lt;span style=&quot;font-size: 30px;&quot;&gt;会計責任者住所&lt;/span&gt;" style="rounded=0;whiteSpace=wrap;html=1;align=right;dashed=1;dashPattern=8 8;verticalAlign=bottom;" parent="cFaB45KztUIKXS-_cTrr-14" vertex="1">
          <mxGeometry x="91" y="1673" width="310" height="46" as="geometry" />
        </mxCell>
        <mxCell id="1jmIK8rgcfgbq0RtJ0nT-58" value="&lt;span style=&quot;font-size: 30px;&quot;&gt;123&lt;br&gt;&lt;/span&gt;" style="rounded=0;whiteSpace=wrap;html=1;align=right;" parent="cFaB45KztUIKXS-_cTrr-14" vertex="1">
          <mxGeometry x="420" y="1730" width="170" height="48" as="geometry" />
        </mxCell>
        <mxCell id="1jmIK8rgcfgbq0RtJ0nT-59" value="&lt;span style=&quot;font-size: 30px;&quot;&gt;郵便番号&lt;/span&gt;" style="rounded=0;whiteSpace=wrap;html=1;align=right;dashed=1;dashPattern=8 8;verticalAlign=bottom;" parent="cFaB45KztUIKXS-_cTrr-14" vertex="1">
          <mxGeometry x="90" y="1732" width="310" height="46" as="geometry" />
        </mxCell>
        <mxCell id="1jmIK8rgcfgbq0RtJ0nT-60" value="&lt;span style=&quot;font-size: 30px;&quot;&gt;456x&lt;br&gt;&lt;/span&gt;" style="rounded=0;whiteSpace=wrap;html=1;align=right;" parent="cFaB45KztUIKXS-_cTrr-14" vertex="1">
          <mxGeometry x="650" y="1730" width="170" height="48" as="geometry" />
        </mxCell>
        <mxCell id="1jmIK8rgcfgbq0RtJ0nT-61" value="&lt;span style=&quot;font-size: 30px;&quot;&gt;住所(郵便番号)&lt;/span&gt;" style="rounded=0;whiteSpace=wrap;html=1;align=right;dashed=1;dashPattern=8 8;verticalAlign=bottom;" parent="cFaB45KztUIKXS-_cTrr-14" vertex="1">
          <mxGeometry x="90" y="1792" width="310" height="46" as="geometry" />
        </mxCell>
        <mxCell id="1jmIK8rgcfgbq0RtJ0nT-62" value="&lt;span style=&quot;font-size: 30px;&quot;&gt;番地&lt;/span&gt;" style="rounded=0;whiteSpace=wrap;html=1;align=right;dashed=1;dashPattern=8 8;verticalAlign=bottom;" parent="cFaB45KztUIKXS-_cTrr-14" vertex="1">
          <mxGeometry x="90" y="1855" width="310" height="46" as="geometry" />
        </mxCell>
        <mxCell id="1jmIK8rgcfgbq0RtJ0nT-63" value="&lt;span style=&quot;font-size: 30px;&quot;&gt;建物&lt;/span&gt;" style="rounded=0;whiteSpace=wrap;html=1;align=right;dashed=1;dashPattern=8 8;verticalAlign=bottom;" parent="cFaB45KztUIKXS-_cTrr-14" vertex="1">
          <mxGeometry x="90" y="1917" width="310" height="46" as="geometry" />
        </mxCell>
        <mxCell id="1jmIK8rgcfgbq0RtJ0nT-64" value="&lt;span style=&quot;font-size: 30px;&quot;&gt;東京都千代田区霞ケ浦&lt;/span&gt;" style="rounded=0;whiteSpace=wrap;html=1;align=left;" parent="cFaB45KztUIKXS-_cTrr-14" vertex="1">
          <mxGeometry x="420" y="1791" width="550" height="48" as="geometry" />
        </mxCell>
        <mxCell id="1jmIK8rgcfgbq0RtJ0nT-65" value="&lt;span style=&quot;font-size: 30px;&quot;&gt;x丁目y番地&lt;/span&gt;" style="rounded=0;whiteSpace=wrap;html=1;align=left;" parent="cFaB45KztUIKXS-_cTrr-14" vertex="1">
          <mxGeometry x="420" y="1857" width="550" height="48" as="geometry" />
        </mxCell>
        <mxCell id="1jmIK8rgcfgbq0RtJ0nT-66" value="&lt;span style=&quot;font-size: 30px;&quot;&gt;zzzabcビル3Fqqq号室&lt;/span&gt;" style="rounded=0;whiteSpace=wrap;html=1;align=left;" parent="cFaB45KztUIKXS-_cTrr-14" vertex="1">
          <mxGeometry x="420" y="1919" width="550" height="48" as="geometry" />
        </mxCell>
        <mxCell id="1jmIK8rgcfgbq0RtJ0nT-67" value="&lt;span style=&quot;font-size: 30px;&quot;&gt;代表者の氏名&lt;/span&gt;" style="rounded=0;whiteSpace=wrap;html=1;align=right;dashed=1;dashPattern=8 8;verticalAlign=bottom;" parent="cFaB45KztUIKXS-_cTrr-14" vertex="1">
          <mxGeometry x="110" y="1543" width="290" height="46" as="geometry" />
        </mxCell>
        <mxCell id="1jmIK8rgcfgbq0RtJ0nT-69" value="&lt;span style=&quot;font-size: 30px;&quot;&gt;－&lt;/span&gt;" style="rounded=0;whiteSpace=wrap;html=1;align=right;dashed=1;dashPattern=8 8;verticalAlign=bottom;" parent="cFaB45KztUIKXS-_cTrr-14" vertex="1">
          <mxGeometry x="601" y="1732" width="40" height="46" as="geometry" />
        </mxCell>
        <mxCell id="1jmIK8rgcfgbq0RtJ0nT-70" value="&lt;span style=&quot;font-size: 30px;&quot;&gt;生年月日&lt;/span&gt;" style="rounded=0;whiteSpace=wrap;html=1;align=right;dashed=1;dashPattern=8 8;verticalAlign=bottom;" parent="cFaB45KztUIKXS-_cTrr-14" vertex="1">
          <mxGeometry x="90" y="1986" width="310" height="46" as="geometry" />
        </mxCell>
        <mxCell id="1jmIK8rgcfgbq0RtJ0nT-71" value="&lt;font style=&quot;font-size: 30px;&quot;&gt;20221201&lt;/font&gt;" style="rounded=0;whiteSpace=wrap;html=1;align=right;" parent="cFaB45KztUIKXS-_cTrr-14" vertex="1">
          <mxGeometry x="420" y="1984" width="250" height="48" as="geometry" />
        </mxCell>
        <mxCell id="1jmIK8rgcfgbq0RtJ0nT-72" value="&lt;span style=&quot;font-size: 30px;&quot;&gt;選任年月日&lt;/span&gt;" style="rounded=0;whiteSpace=wrap;html=1;align=right;dashed=1;dashPattern=8 8;verticalAlign=bottom;" parent="cFaB45KztUIKXS-_cTrr-14" vertex="1">
          <mxGeometry x="90" y="2056" width="310" height="46" as="geometry" />
        </mxCell>
        <mxCell id="1jmIK8rgcfgbq0RtJ0nT-73" value="&lt;font style=&quot;font-size: 30px;&quot;&gt;20221201&lt;/font&gt;" style="rounded=0;whiteSpace=wrap;html=1;align=right;" parent="cFaB45KztUIKXS-_cTrr-14" vertex="1">
          <mxGeometry x="420" y="2054" width="250" height="48" as="geometry" />
        </mxCell>
        <mxCell id="1jmIK8rgcfgbq0RtJ0nT-74" value="&lt;span style=&quot;font-size: 30px;&quot;&gt;&lt;b&gt;会計責任者の入力項目&lt;/b&gt;&lt;/span&gt;" style="rounded=0;whiteSpace=wrap;html=1;align=left;dashed=1;dashPattern=8 8;verticalAlign=bottom;" parent="cFaB45KztUIKXS-_cTrr-14" vertex="1">
          <mxGeometry x="50" y="1483" width="380" height="46" as="geometry" />
        </mxCell>
        <mxCell id="1jmIK8rgcfgbq0RtJ0nT-75" value="&lt;span style=&quot;font-size: 30px;&quot;&gt;職務代行者住所&lt;/span&gt;" style="rounded=0;whiteSpace=wrap;html=1;align=right;dashed=1;dashPattern=8 8;verticalAlign=bottom;" parent="cFaB45KztUIKXS-_cTrr-14" vertex="1">
          <mxGeometry x="86" y="2317" width="310" height="46" as="geometry" />
        </mxCell>
        <mxCell id="1jmIK8rgcfgbq0RtJ0nT-76" value="&lt;span style=&quot;font-size: 30px;&quot;&gt;123&lt;br&gt;&lt;/span&gt;" style="rounded=0;whiteSpace=wrap;html=1;align=right;" parent="cFaB45KztUIKXS-_cTrr-14" vertex="1">
          <mxGeometry x="420" y="2374" width="170" height="48" as="geometry" />
        </mxCell>
        <mxCell id="1jmIK8rgcfgbq0RtJ0nT-77" value="&lt;span style=&quot;font-size: 30px;&quot;&gt;郵便番号&lt;/span&gt;" style="rounded=0;whiteSpace=wrap;html=1;align=right;dashed=1;dashPattern=8 8;verticalAlign=bottom;" parent="cFaB45KztUIKXS-_cTrr-14" vertex="1">
          <mxGeometry x="90" y="2376" width="310" height="46" as="geometry" />
        </mxCell>
        <mxCell id="1jmIK8rgcfgbq0RtJ0nT-78" value="&lt;span style=&quot;font-size: 30px;&quot;&gt;456x&lt;br&gt;&lt;/span&gt;" style="rounded=0;whiteSpace=wrap;html=1;align=right;" parent="cFaB45KztUIKXS-_cTrr-14" vertex="1">
          <mxGeometry x="650" y="2374" width="170" height="48" as="geometry" />
        </mxCell>
        <mxCell id="1jmIK8rgcfgbq0RtJ0nT-79" value="&lt;span style=&quot;font-size: 30px;&quot;&gt;住所(郵便番号)&lt;/span&gt;" style="rounded=0;whiteSpace=wrap;html=1;align=right;dashed=1;dashPattern=8 8;verticalAlign=bottom;" parent="cFaB45KztUIKXS-_cTrr-14" vertex="1">
          <mxGeometry x="90" y="2436" width="310" height="46" as="geometry" />
        </mxCell>
        <mxCell id="1jmIK8rgcfgbq0RtJ0nT-80" value="&lt;span style=&quot;font-size: 30px;&quot;&gt;番地&lt;/span&gt;" style="rounded=0;whiteSpace=wrap;html=1;align=right;dashed=1;dashPattern=8 8;verticalAlign=bottom;" parent="cFaB45KztUIKXS-_cTrr-14" vertex="1">
          <mxGeometry x="90" y="2499" width="310" height="46" as="geometry" />
        </mxCell>
        <mxCell id="1jmIK8rgcfgbq0RtJ0nT-81" value="&lt;span style=&quot;font-size: 30px;&quot;&gt;建物&lt;/span&gt;" style="rounded=0;whiteSpace=wrap;html=1;align=right;dashed=1;dashPattern=8 8;verticalAlign=bottom;" parent="cFaB45KztUIKXS-_cTrr-14" vertex="1">
          <mxGeometry x="90" y="2561" width="310" height="46" as="geometry" />
        </mxCell>
        <mxCell id="1jmIK8rgcfgbq0RtJ0nT-82" value="&lt;span style=&quot;font-size: 30px;&quot;&gt;東京都千代田区霞ケ浦&lt;/span&gt;" style="rounded=0;whiteSpace=wrap;html=1;align=left;" parent="cFaB45KztUIKXS-_cTrr-14" vertex="1">
          <mxGeometry x="420" y="2435" width="550" height="48" as="geometry" />
        </mxCell>
        <mxCell id="1jmIK8rgcfgbq0RtJ0nT-83" value="&lt;span style=&quot;font-size: 30px;&quot;&gt;x丁目y番地&lt;/span&gt;" style="rounded=0;whiteSpace=wrap;html=1;align=left;" parent="cFaB45KztUIKXS-_cTrr-14" vertex="1">
          <mxGeometry x="420" y="2501" width="550" height="48" as="geometry" />
        </mxCell>
        <mxCell id="1jmIK8rgcfgbq0RtJ0nT-84" value="&lt;span style=&quot;font-size: 30px;&quot;&gt;zzzabcビル3Fqqq号室&lt;/span&gt;" style="rounded=0;whiteSpace=wrap;html=1;align=left;" parent="cFaB45KztUIKXS-_cTrr-14" vertex="1">
          <mxGeometry x="420" y="2563" width="550" height="48" as="geometry" />
        </mxCell>
        <mxCell id="1jmIK8rgcfgbq0RtJ0nT-85" value="&lt;span style=&quot;font-size: 30px;&quot;&gt;代表者の氏名&lt;/span&gt;" style="rounded=0;whiteSpace=wrap;html=1;align=right;dashed=1;dashPattern=8 8;verticalAlign=bottom;" parent="cFaB45KztUIKXS-_cTrr-14" vertex="1">
          <mxGeometry x="110" y="2187" width="290" height="46" as="geometry" />
        </mxCell>
        <mxCell id="1jmIK8rgcfgbq0RtJ0nT-87" value="&lt;span style=&quot;font-size: 30px;&quot;&gt;－&lt;/span&gt;" style="rounded=0;whiteSpace=wrap;html=1;align=right;dashed=1;dashPattern=8 8;verticalAlign=bottom;" parent="cFaB45KztUIKXS-_cTrr-14" vertex="1">
          <mxGeometry x="601" y="2376" width="40" height="46" as="geometry" />
        </mxCell>
        <mxCell id="1jmIK8rgcfgbq0RtJ0nT-88" value="&lt;span style=&quot;font-size: 30px;&quot;&gt;生年月日&lt;/span&gt;" style="rounded=0;whiteSpace=wrap;html=1;align=right;dashed=1;dashPattern=8 8;verticalAlign=bottom;" parent="cFaB45KztUIKXS-_cTrr-14" vertex="1">
          <mxGeometry x="90" y="2630" width="310" height="46" as="geometry" />
        </mxCell>
        <mxCell id="1jmIK8rgcfgbq0RtJ0nT-89" value="&lt;font style=&quot;font-size: 30px;&quot;&gt;20221201&lt;/font&gt;" style="rounded=0;whiteSpace=wrap;html=1;align=right;" parent="cFaB45KztUIKXS-_cTrr-14" vertex="1">
          <mxGeometry x="420" y="2628" width="250" height="48" as="geometry" />
        </mxCell>
        <mxCell id="1jmIK8rgcfgbq0RtJ0nT-90" value="&lt;span style=&quot;font-size: 30px;&quot;&gt;選任年月日&lt;/span&gt;" style="rounded=0;whiteSpace=wrap;html=1;align=right;dashed=1;dashPattern=8 8;verticalAlign=bottom;" parent="cFaB45KztUIKXS-_cTrr-14" vertex="1">
          <mxGeometry x="90" y="2700" width="310" height="46" as="geometry" />
        </mxCell>
        <mxCell id="1jmIK8rgcfgbq0RtJ0nT-91" value="&lt;font style=&quot;font-size: 30px;&quot;&gt;20221201&lt;/font&gt;" style="rounded=0;whiteSpace=wrap;html=1;align=right;" parent="cFaB45KztUIKXS-_cTrr-14" vertex="1">
          <mxGeometry x="420" y="2698" width="250" height="48" as="geometry" />
        </mxCell>
        <mxCell id="1jmIK8rgcfgbq0RtJ0nT-92" value="&lt;span style=&quot;font-size: 30px;&quot;&gt;&lt;b&gt;会計責任者職務代行者の入力項目&lt;/b&gt;&lt;/span&gt;" style="rounded=0;whiteSpace=wrap;html=1;align=left;dashed=1;dashPattern=8 8;verticalAlign=bottom;" parent="cFaB45KztUIKXS-_cTrr-14" vertex="1">
          <mxGeometry x="50" y="2127" width="520" height="46" as="geometry" />
        </mxCell>
        <mxCell id="1jmIK8rgcfgbq0RtJ0nT-93" value="&lt;span style=&quot;font-size: 30px;&quot;&gt;衆議院または参議院議員の現職または候補者自身が代表者である&lt;/span&gt;" style="rounded=0;whiteSpace=wrap;html=1;align=left;dashed=1;dashPattern=8 8;verticalAlign=bottom;" parent="cFaB45KztUIKXS-_cTrr-14" vertex="1">
          <mxGeometry x="486" y="3230" width="1073" height="46" as="geometry" />
        </mxCell>
        <mxCell id="1jmIK8rgcfgbq0RtJ0nT-94" value="&lt;span style=&quot;font-size: 30px;&quot;&gt;&lt;br&gt;衆議院または参議院議員の現職または候補者を支援する(代表者が異なる)&lt;/span&gt;" style="rounded=0;whiteSpace=wrap;html=1;align=left;dashed=1;dashPattern=8 8;verticalAlign=bottom;" parent="cFaB45KztUIKXS-_cTrr-14" vertex="1">
          <mxGeometry x="486" y="3310" width="1073" height="40" as="geometry" />
        </mxCell>
        <mxCell id="1jmIK8rgcfgbq0RtJ0nT-95" value="&lt;span style=&quot;font-size: 30px;&quot;&gt;(候補者・現職の集まりである)政党&lt;/span&gt;" style="rounded=0;whiteSpace=wrap;html=1;align=left;dashed=1;dashPattern=8 8;verticalAlign=bottom;" parent="cFaB45KztUIKXS-_cTrr-14" vertex="1">
          <mxGeometry x="486" y="3380" width="1073" height="46" as="geometry" />
        </mxCell>
        <mxCell id="1jmIK8rgcfgbq0RtJ0nT-96" value="&lt;span style=&quot;font-size: 30px;&quot;&gt;政党支部&lt;/span&gt;" style="rounded=0;whiteSpace=wrap;html=1;align=left;dashed=1;dashPattern=8 8;verticalAlign=bottom;" parent="cFaB45KztUIKXS-_cTrr-14" vertex="1">
          <mxGeometry x="486" y="3460" width="303" height="46" as="geometry" />
        </mxCell>
        <mxCell id="1jmIK8rgcfgbq0RtJ0nT-97" value="&lt;font style=&quot;font-size: 84px;&quot;&gt;○&lt;/font&gt;" style="text;html=1;strokeColor=none;fillColor=none;align=center;verticalAlign=middle;whiteSpace=wrap;rounded=0;fontSize=60;" parent="cFaB45KztUIKXS-_cTrr-14" vertex="1">
          <mxGeometry x="423" y="3238" width="60" height="30" as="geometry" />
        </mxCell>
        <mxCell id="1jmIK8rgcfgbq0RtJ0nT-98" value="&lt;font style=&quot;font-size: 48px;&quot;&gt;●&lt;/font&gt;" style="text;html=1;strokeColor=none;fillColor=none;align=center;verticalAlign=middle;whiteSpace=wrap;rounded=0;fontSize=48;" parent="cFaB45KztUIKXS-_cTrr-14" vertex="1">
          <mxGeometry x="423" y="3240" width="60" height="30" as="geometry" />
        </mxCell>
        <mxCell id="1jmIK8rgcfgbq0RtJ0nT-99" value="&lt;font style=&quot;font-size: 84px;&quot;&gt;○&lt;/font&gt;" style="text;html=1;strokeColor=none;fillColor=none;align=center;verticalAlign=middle;whiteSpace=wrap;rounded=0;fontSize=60;" parent="cFaB45KztUIKXS-_cTrr-14" vertex="1">
          <mxGeometry x="423" y="3308" width="60" height="30" as="geometry" />
        </mxCell>
        <mxCell id="1jmIK8rgcfgbq0RtJ0nT-101" value="&lt;font style=&quot;font-size: 84px;&quot;&gt;○&lt;/font&gt;" style="text;html=1;strokeColor=none;fillColor=none;align=center;verticalAlign=middle;whiteSpace=wrap;rounded=0;fontSize=60;" parent="cFaB45KztUIKXS-_cTrr-14" vertex="1">
          <mxGeometry x="423" y="3388" width="60" height="30" as="geometry" />
        </mxCell>
        <mxCell id="1jmIK8rgcfgbq0RtJ0nT-102" value="&lt;font style=&quot;font-size: 84px;&quot;&gt;○&lt;/font&gt;" style="text;html=1;strokeColor=none;fillColor=none;align=center;verticalAlign=middle;whiteSpace=wrap;rounded=0;fontSize=60;" parent="cFaB45KztUIKXS-_cTrr-14" vertex="1">
          <mxGeometry x="423" y="3459" width="60" height="30" as="geometry" />
        </mxCell>
        <mxCell id="1jmIK8rgcfgbq0RtJ0nT-103" value="&lt;span style=&quot;font-size: 30px;&quot;&gt;▼本部である政党を選択&lt;/span&gt;" style="rounded=0;whiteSpace=wrap;html=1;align=left;fillColor=#FFFFFF;" parent="cFaB45KztUIKXS-_cTrr-14" vertex="1">
          <mxGeometry x="809" y="3460" width="390" height="48" as="geometry" />
        </mxCell>
        <mxCell id="1jmIK8rgcfgbq0RtJ0nT-105" value="&lt;font style=&quot;font-size: 30px;&quot;&gt;選択肢がないので自由記述&lt;/font&gt;" style="rounded=0;whiteSpace=wrap;html=1;align=left;" parent="cFaB45KztUIKXS-_cTrr-14" vertex="1">
          <mxGeometry x="1210" y="3462" width="380" height="48" as="geometry" />
        </mxCell>
        <mxCell id="1jmIK8rgcfgbq0RtJ0nT-106" value="&lt;span style=&quot;font-size: 30px;&quot;&gt;地方自治体首長、衆議院または参議院以外の議会の現職または候補者&lt;/span&gt;" style="rounded=0;whiteSpace=wrap;html=1;align=left;dashed=1;dashPattern=8 8;verticalAlign=bottom;" parent="cFaB45KztUIKXS-_cTrr-14" vertex="1">
          <mxGeometry x="486" y="3533" width="1013" height="46" as="geometry" />
        </mxCell>
        <mxCell id="1jmIK8rgcfgbq0RtJ0nT-107" value="&lt;font style=&quot;font-size: 84px;&quot;&gt;○&lt;/font&gt;" style="text;html=1;strokeColor=none;fillColor=none;align=center;verticalAlign=middle;whiteSpace=wrap;rounded=0;fontSize=60;" parent="cFaB45KztUIKXS-_cTrr-14" vertex="1">
          <mxGeometry x="423" y="3538" width="60" height="30" as="geometry" />
        </mxCell>
        <mxCell id="1jmIK8rgcfgbq0RtJ0nT-108" value="&lt;span style=&quot;font-size: 30px;&quot;&gt;候補者・現職は存在しないが&lt;br&gt;特定パーティの収益が10,000,000円以上ある場合&lt;/span&gt;" style="rounded=0;whiteSpace=wrap;html=1;align=left;dashed=1;dashPattern=8 8;verticalAlign=bottom;" parent="cFaB45KztUIKXS-_cTrr-14" vertex="1">
          <mxGeometry x="489" y="3588" width="1072" height="79" as="geometry" />
        </mxCell>
        <mxCell id="1jmIK8rgcfgbq0RtJ0nT-109" value="&lt;font style=&quot;font-size: 84px;&quot;&gt;○&lt;/font&gt;" style="text;html=1;strokeColor=none;fillColor=none;align=center;verticalAlign=middle;whiteSpace=wrap;rounded=0;fontSize=60;" parent="cFaB45KztUIKXS-_cTrr-14" vertex="1">
          <mxGeometry x="423" y="3608" width="60" height="30" as="geometry" />
        </mxCell>
        <mxCell id="1jmIK8rgcfgbq0RtJ0nT-110" value="&lt;span style=&quot;font-size: 30px;&quot;&gt;その他の政治団体&lt;/span&gt;" style="rounded=0;whiteSpace=wrap;html=1;align=left;dashed=1;dashPattern=8 8;verticalAlign=bottom;" parent="cFaB45KztUIKXS-_cTrr-14" vertex="1">
          <mxGeometry x="487" y="3681" width="1073" height="46" as="geometry" />
        </mxCell>
        <mxCell id="1jmIK8rgcfgbq0RtJ0nT-111" value="&lt;font style=&quot;font-size: 84px;&quot;&gt;○&lt;/font&gt;" style="text;html=1;strokeColor=none;fillColor=none;align=center;verticalAlign=middle;whiteSpace=wrap;rounded=0;fontSize=60;" parent="cFaB45KztUIKXS-_cTrr-14" vertex="1">
          <mxGeometry x="424" y="3678" width="60" height="30" as="geometry" />
        </mxCell>
        <mxCell id="1jmIK8rgcfgbq0RtJ0nT-112" value="&lt;span style=&quot;font-size: 30px;&quot;&gt;政治団体支部&lt;/span&gt;" style="rounded=0;whiteSpace=wrap;html=1;align=left;dashed=1;dashPattern=8 8;verticalAlign=bottom;" parent="cFaB45KztUIKXS-_cTrr-14" vertex="1">
          <mxGeometry x="486" y="3750" width="303" height="46" as="geometry" />
        </mxCell>
        <mxCell id="1jmIK8rgcfgbq0RtJ0nT-113" value="&lt;font style=&quot;font-size: 84px;&quot;&gt;○&lt;/font&gt;" style="text;html=1;strokeColor=none;fillColor=none;align=center;verticalAlign=middle;whiteSpace=wrap;rounded=0;fontSize=60;" parent="cFaB45KztUIKXS-_cTrr-14" vertex="1">
          <mxGeometry x="423" y="3749" width="60" height="30" as="geometry" />
        </mxCell>
        <mxCell id="1jmIK8rgcfgbq0RtJ0nT-114" value="&lt;span style=&quot;font-size: 30px;&quot;&gt;▼本部の政治団体を選択&lt;/span&gt;" style="rounded=0;whiteSpace=wrap;html=1;align=left;fillColor=#FFFFFF;" parent="cFaB45KztUIKXS-_cTrr-14" vertex="1">
          <mxGeometry x="809" y="3750" width="390" height="48" as="geometry" />
        </mxCell>
        <mxCell id="1jmIK8rgcfgbq0RtJ0nT-115" value="&lt;font style=&quot;font-size: 30px;&quot;&gt;選択肢がないので自由記述&lt;/font&gt;" style="rounded=0;whiteSpace=wrap;html=1;align=left;" parent="cFaB45KztUIKXS-_cTrr-14" vertex="1">
          <mxGeometry x="1209" y="3749" width="380" height="48" as="geometry" />
        </mxCell>
        <mxCell id="1jmIK8rgcfgbq0RtJ0nT-116" value="&lt;span style=&quot;font-size: 30px;&quot;&gt;&lt;b&gt;政治団体の特性&lt;/b&gt;&lt;/span&gt;" style="rounded=0;whiteSpace=wrap;html=1;align=left;dashed=1;dashPattern=8 8;verticalAlign=bottom;" parent="cFaB45KztUIKXS-_cTrr-14" vertex="1">
          <mxGeometry x="50" y="3167" width="520" height="46" as="geometry" />
        </mxCell>
        <mxCell id="1jmIK8rgcfgbq0RtJ0nT-117" value="&lt;span style=&quot;font-size: 30px;&quot;&gt;政治団体区分&lt;/span&gt;" style="rounded=0;whiteSpace=wrap;html=1;align=left;dashed=1;dashPattern=8 8;verticalAlign=bottom;" parent="cFaB45KztUIKXS-_cTrr-14" vertex="1">
          <mxGeometry x="60" y="3239" width="310" height="46" as="geometry" />
        </mxCell>
        <mxCell id="1jmIK8rgcfgbq0RtJ0nT-118" value="&lt;font style=&quot;font-size: 30px;&quot;&gt;政治資金規正法第18条の２&lt;br/&gt;第１項の規定による政治団体&lt;/font&gt;" style="rounded=0;whiteSpace=wrap;html=1;align=left;fillColor=#CCCCCC;fontColor=#333333;strokeColor=#000000;verticalAlign=top;" parent="cFaB45KztUIKXS-_cTrr-14" vertex="1">
          <mxGeometry x="60" y="3306" width="290" height="184" as="geometry" />
        </mxCell>
        <mxCell id="1jmIK8rgcfgbq0RtJ0nT-119" value="&lt;span style=&quot;font-size: 30px;&quot;&gt;国会議員団体区分&lt;/span&gt;" style="rounded=0;whiteSpace=wrap;html=1;align=left;dashed=1;dashPattern=8 8;verticalAlign=bottom;" parent="cFaB45KztUIKXS-_cTrr-14" vertex="1">
          <mxGeometry x="60" y="3529" width="310" height="46" as="geometry" />
        </mxCell>
        <mxCell id="1jmIK8rgcfgbq0RtJ0nT-120" value="&lt;span style=&quot;font-size: 30px;&quot;&gt;該当しません&lt;/span&gt;" style="rounded=0;whiteSpace=wrap;html=1;align=left;fillColor=#CCCCCC;fontColor=#333333;strokeColor=#000000;verticalAlign=top;" parent="cFaB45KztUIKXS-_cTrr-14" vertex="1">
          <mxGeometry x="60" y="3596" width="290" height="184" as="geometry" />
        </mxCell>
        <mxCell id="ZoAoHfaYSO0jLw7YoZ8p-1" value="&lt;span style=&quot;font-size: 30px;&quot;&gt;国会議員の所属または&lt;br&gt;候補者の所属予定&lt;br&gt;&lt;/span&gt;" style="rounded=0;whiteSpace=wrap;html=1;align=right;dashed=1;dashPattern=8 8;verticalAlign=bottom;" parent="cFaB45KztUIKXS-_cTrr-14" vertex="1">
          <mxGeometry x="60" y="3890" width="340" height="76" as="geometry" />
        </mxCell>
        <mxCell id="ZoAoHfaYSO0jLw7YoZ8p-2" value="&lt;font style=&quot;font-size: 84px;&quot;&gt;○&lt;/font&gt;" style="text;html=1;strokeColor=none;fillColor=none;align=center;verticalAlign=middle;whiteSpace=wrap;rounded=0;fontSize=60;" parent="cFaB45KztUIKXS-_cTrr-14" vertex="1">
          <mxGeometry x="430" y="3900" width="60" height="30" as="geometry" />
        </mxCell>
        <mxCell id="ZoAoHfaYSO0jLw7YoZ8p-3" value="&lt;font style=&quot;font-size: 48px;&quot;&gt;●&lt;/font&gt;" style="text;html=1;strokeColor=none;fillColor=none;align=center;verticalAlign=middle;whiteSpace=wrap;rounded=0;fontSize=48;" parent="cFaB45KztUIKXS-_cTrr-14" vertex="1">
          <mxGeometry x="430" y="3902" width="60" height="30" as="geometry" />
        </mxCell>
        <mxCell id="ZoAoHfaYSO0jLw7YoZ8p-4" value="&lt;font style=&quot;font-size: 84px;&quot;&gt;○&lt;/font&gt;" style="text;html=1;strokeColor=none;fillColor=none;align=center;verticalAlign=middle;whiteSpace=wrap;rounded=0;fontSize=60;" parent="cFaB45KztUIKXS-_cTrr-14" vertex="1">
          <mxGeometry x="660" y="3900" width="60" height="30" as="geometry" />
        </mxCell>
        <mxCell id="ZoAoHfaYSO0jLw7YoZ8p-5" value="&lt;font style=&quot;font-size: 30px;&quot;&gt;参議院現職&lt;/font&gt;" style="text;html=1;strokeColor=none;fillColor=none;align=left;verticalAlign=middle;whiteSpace=wrap;rounded=0;" parent="cFaB45KztUIKXS-_cTrr-14" vertex="1">
          <mxGeometry x="715" y="3892" width="275" height="60" as="geometry" />
        </mxCell>
        <mxCell id="ZoAoHfaYSO0jLw7YoZ8p-6" value="&lt;span style=&quot;font-size: 30px;&quot;&gt;衆議院現職&lt;br&gt;&lt;/span&gt;" style="text;html=1;strokeColor=none;fillColor=none;align=left;verticalAlign=middle;whiteSpace=wrap;rounded=0;" parent="cFaB45KztUIKXS-_cTrr-14" vertex="1">
          <mxGeometry x="480" y="3891" width="220" height="60" as="geometry" />
        </mxCell>
        <mxCell id="ZoAoHfaYSO0jLw7YoZ8p-7" value="&lt;span style=&quot;font-size: 30px;&quot;&gt;議員(候補者)名前&lt;/span&gt;" style="rounded=0;whiteSpace=wrap;html=1;align=right;dashed=1;dashPattern=8 8;verticalAlign=bottom;" parent="cFaB45KztUIKXS-_cTrr-14" vertex="1">
          <mxGeometry x="60" y="3989" width="340" height="46" as="geometry" />
        </mxCell>
        <mxCell id="81jv1HNxyphZJET-4Zs3-0" value="&lt;span style=&quot;font-size: 30px;&quot;&gt;名前ふりがな&lt;/span&gt;" style="rounded=0;whiteSpace=wrap;html=1;align=right;dashed=1;dashPattern=8 8;verticalAlign=bottom;" parent="cFaB45KztUIKXS-_cTrr-14" vertex="1">
          <mxGeometry x="60" y="4059" width="340" height="46" as="geometry" />
        </mxCell>
        <mxCell id="81jv1HNxyphZJET-4Zs3-3" value="&lt;span style=&quot;font-size: 30px;&quot;&gt;政治団体　太郎&lt;/span&gt;" style="rounded=0;whiteSpace=wrap;html=1;align=left;" parent="cFaB45KztUIKXS-_cTrr-14" vertex="1">
          <mxGeometry x="750" y="902" width="250" height="48" as="geometry" />
        </mxCell>
        <mxCell id="81jv1HNxyphZJET-4Zs3-4" value="&lt;span style=&quot;font-size: 30px;&quot;&gt;(姓)&lt;/span&gt;" style="rounded=0;whiteSpace=wrap;html=1;align=right;dashed=1;dashPattern=8 8;verticalAlign=bottom;" parent="cFaB45KztUIKXS-_cTrr-14" vertex="1">
          <mxGeometry x="674" y="903" width="50" height="46" as="geometry" />
        </mxCell>
        <mxCell id="81jv1HNxyphZJET-4Zs3-5" value="&lt;span style=&quot;font-size: 30px;&quot;&gt;(名)&lt;/span&gt;" style="rounded=0;whiteSpace=wrap;html=1;align=right;dashed=1;dashPattern=8 8;verticalAlign=bottom;" parent="cFaB45KztUIKXS-_cTrr-14" vertex="1">
          <mxGeometry x="1004" y="903" width="50" height="46" as="geometry" />
        </mxCell>
        <mxCell id="81jv1HNxyphZJET-4Zs3-6" value="&lt;span style=&quot;font-size: 30px;&quot;&gt;政治団体&lt;/span&gt;" style="rounded=0;whiteSpace=wrap;html=1;align=left;fillColor=#CCCCCC;" parent="cFaB45KztUIKXS-_cTrr-14" vertex="1">
          <mxGeometry x="350" y="268" width="250" height="48" as="geometry" />
        </mxCell>
        <mxCell id="81jv1HNxyphZJET-4Zs3-7" value="&lt;span style=&quot;font-size: 30px;&quot;&gt;太郎&lt;/span&gt;" style="rounded=0;whiteSpace=wrap;html=1;align=left;fillColor=#CCCCCC;" parent="cFaB45KztUIKXS-_cTrr-14" vertex="1">
          <mxGeometry x="680" y="268" width="250" height="48" as="geometry" />
        </mxCell>
        <mxCell id="81jv1HNxyphZJET-4Zs3-8" value="&lt;span style=&quot;font-size: 30px;&quot;&gt;(姓)&lt;/span&gt;" style="rounded=0;whiteSpace=wrap;html=1;align=right;dashed=1;dashPattern=8 8;verticalAlign=bottom;" parent="cFaB45KztUIKXS-_cTrr-14" vertex="1">
          <mxGeometry x="604" y="269" width="50" height="46" as="geometry" />
        </mxCell>
        <mxCell id="81jv1HNxyphZJET-4Zs3-9" value="&lt;span style=&quot;font-size: 30px;&quot;&gt;(名)&lt;/span&gt;" style="rounded=0;whiteSpace=wrap;html=1;align=right;dashed=1;dashPattern=8 8;verticalAlign=bottom;" parent="cFaB45KztUIKXS-_cTrr-14" vertex="1">
          <mxGeometry x="934" y="269" width="50" height="46" as="geometry" />
        </mxCell>
        <mxCell id="81jv1HNxyphZJET-4Zs3-10" value="&lt;span style=&quot;font-size: 30px;&quot;&gt;政治団体　太郎&lt;/span&gt;" style="rounded=0;whiteSpace=wrap;html=1;align=left;" parent="cFaB45KztUIKXS-_cTrr-14" vertex="1">
          <mxGeometry x="420" y="1542" width="250" height="48" as="geometry" />
        </mxCell>
        <mxCell id="81jv1HNxyphZJET-4Zs3-11" value="&lt;span style=&quot;font-size: 30px;&quot;&gt;政治団体　太郎&lt;/span&gt;" style="rounded=0;whiteSpace=wrap;html=1;align=left;" parent="cFaB45KztUIKXS-_cTrr-14" vertex="1">
          <mxGeometry x="750" y="1542" width="250" height="48" as="geometry" />
        </mxCell>
        <mxCell id="81jv1HNxyphZJET-4Zs3-12" value="&lt;span style=&quot;font-size: 30px;&quot;&gt;(姓)&lt;/span&gt;" style="rounded=0;whiteSpace=wrap;html=1;align=right;dashed=1;dashPattern=8 8;verticalAlign=bottom;" parent="cFaB45KztUIKXS-_cTrr-14" vertex="1">
          <mxGeometry x="674" y="1543" width="50" height="46" as="geometry" />
        </mxCell>
        <mxCell id="81jv1HNxyphZJET-4Zs3-13" value="&lt;span style=&quot;font-size: 30px;&quot;&gt;(名)&lt;/span&gt;" style="rounded=0;whiteSpace=wrap;html=1;align=right;dashed=1;dashPattern=8 8;verticalAlign=bottom;" parent="cFaB45KztUIKXS-_cTrr-14" vertex="1">
          <mxGeometry x="1004" y="1543" width="50" height="46" as="geometry" />
        </mxCell>
        <mxCell id="81jv1HNxyphZJET-4Zs3-14" value="&lt;span style=&quot;font-size: 30px;&quot;&gt;政治団体　太郎&lt;/span&gt;" style="rounded=0;whiteSpace=wrap;html=1;align=left;" parent="cFaB45KztUIKXS-_cTrr-14" vertex="1">
          <mxGeometry x="420" y="2189" width="250" height="48" as="geometry" />
        </mxCell>
        <mxCell id="81jv1HNxyphZJET-4Zs3-15" value="&lt;span style=&quot;font-size: 30px;&quot;&gt;政治団体　太郎&lt;/span&gt;" style="rounded=0;whiteSpace=wrap;html=1;align=left;" parent="cFaB45KztUIKXS-_cTrr-14" vertex="1">
          <mxGeometry x="750" y="2189" width="250" height="48" as="geometry" />
        </mxCell>
        <mxCell id="81jv1HNxyphZJET-4Zs3-16" value="&lt;span style=&quot;font-size: 30px;&quot;&gt;(姓)&lt;/span&gt;" style="rounded=0;whiteSpace=wrap;html=1;align=right;dashed=1;dashPattern=8 8;verticalAlign=bottom;" parent="cFaB45KztUIKXS-_cTrr-14" vertex="1">
          <mxGeometry x="674" y="2190" width="50" height="46" as="geometry" />
        </mxCell>
        <mxCell id="81jv1HNxyphZJET-4Zs3-17" value="&lt;span style=&quot;font-size: 30px;&quot;&gt;(名)&lt;/span&gt;" style="rounded=0;whiteSpace=wrap;html=1;align=right;dashed=1;dashPattern=8 8;verticalAlign=bottom;" parent="cFaB45KztUIKXS-_cTrr-14" vertex="1">
          <mxGeometry x="1004" y="2190" width="50" height="46" as="geometry" />
        </mxCell>
        <mxCell id="81jv1HNxyphZJET-4Zs3-18" value="&lt;font style=&quot;font-size: 30px;&quot;&gt;主たる活動区域&lt;/font&gt;" style="rounded=0;whiteSpace=wrap;html=1;align=right;dashed=1;dashPattern=8 8;verticalAlign=bottom;" parent="cFaB45KztUIKXS-_cTrr-14" vertex="1">
          <mxGeometry x="66" y="5296" width="340" height="35" as="geometry" />
        </mxCell>
        <mxCell id="81jv1HNxyphZJET-4Zs3-19" value="&lt;font style=&quot;font-size: 84px;&quot;&gt;○&lt;/font&gt;" style="text;html=1;strokeColor=none;fillColor=none;align=center;verticalAlign=middle;whiteSpace=wrap;rounded=0;fontSize=60;" parent="cFaB45KztUIKXS-_cTrr-14" vertex="1">
          <mxGeometry x="418" y="5285" width="60" height="30" as="geometry" />
        </mxCell>
        <mxCell id="81jv1HNxyphZJET-4Zs3-20" value="&lt;font style=&quot;font-size: 48px;&quot;&gt;●&lt;/font&gt;" style="text;html=1;strokeColor=none;fillColor=none;align=center;verticalAlign=middle;whiteSpace=wrap;rounded=0;fontSize=48;" parent="cFaB45KztUIKXS-_cTrr-14" vertex="1">
          <mxGeometry x="418" y="5287" width="60" height="30" as="geometry" />
        </mxCell>
        <mxCell id="81jv1HNxyphZJET-4Zs3-21" value="&lt;font style=&quot;font-size: 84px;&quot;&gt;○&lt;/font&gt;" style="text;html=1;strokeColor=none;fillColor=none;align=center;verticalAlign=middle;whiteSpace=wrap;rounded=0;fontSize=60;" parent="cFaB45KztUIKXS-_cTrr-14" vertex="1">
          <mxGeometry x="838" y="5285" width="60" height="30" as="geometry" />
        </mxCell>
        <mxCell id="81jv1HNxyphZJET-4Zs3-22" value="&lt;font style=&quot;font-size: 30px;&quot;&gt;同一の都道府県の区域内&lt;/font&gt;" style="text;html=1;strokeColor=none;fillColor=none;align=left;verticalAlign=middle;whiteSpace=wrap;rounded=0;" parent="cFaB45KztUIKXS-_cTrr-14" vertex="1">
          <mxGeometry x="893" y="5277" width="347" height="60" as="geometry" />
        </mxCell>
        <mxCell id="81jv1HNxyphZJET-4Zs3-23" value="&lt;span style=&quot;font-size: 30px;&quot;&gt;2以上の都道府県の区域等&lt;br&gt;&lt;/span&gt;" style="text;html=1;strokeColor=none;fillColor=none;align=left;verticalAlign=middle;whiteSpace=wrap;rounded=0;" parent="cFaB45KztUIKXS-_cTrr-14" vertex="1">
          <mxGeometry x="468" y="5276" width="382" height="60" as="geometry" />
        </mxCell>
        <mxCell id="81jv1HNxyphZJET-4Zs3-24" value="&lt;font style=&quot;font-size: 30px;&quot;&gt;0123&lt;/font&gt;" style="rounded=0;whiteSpace=wrap;html=1;align=right;" parent="cFaB45KztUIKXS-_cTrr-14" vertex="1">
          <mxGeometry x="417" y="2254" width="170" height="48" as="geometry" />
        </mxCell>
        <mxCell id="81jv1HNxyphZJET-4Zs3-25" value="&lt;span style=&quot;font-size: 30px;&quot;&gt;電話番号&lt;/span&gt;" style="rounded=0;whiteSpace=wrap;html=1;align=right;dashed=1;dashPattern=8 8;verticalAlign=bottom;" parent="cFaB45KztUIKXS-_cTrr-14" vertex="1">
          <mxGeometry x="87" y="2256" width="310" height="46" as="geometry" />
        </mxCell>
        <mxCell id="81jv1HNxyphZJET-4Zs3-26" value="&lt;span style=&quot;font-size: 30px;&quot;&gt;45&lt;br&gt;&lt;/span&gt;" style="rounded=0;whiteSpace=wrap;html=1;align=right;" parent="cFaB45KztUIKXS-_cTrr-14" vertex="1">
          <mxGeometry x="647" y="2254" width="170" height="48" as="geometry" />
        </mxCell>
        <mxCell id="81jv1HNxyphZJET-4Zs3-27" value="&lt;span style=&quot;font-size: 30px;&quot;&gt;－&lt;/span&gt;" style="rounded=0;whiteSpace=wrap;html=1;align=right;dashed=1;dashPattern=8 8;verticalAlign=bottom;" parent="cFaB45KztUIKXS-_cTrr-14" vertex="1">
          <mxGeometry x="598" y="2256" width="40" height="46" as="geometry" />
        </mxCell>
        <mxCell id="81jv1HNxyphZJET-4Zs3-28" value="&lt;span style=&quot;font-size: 30px;&quot;&gt;678z&lt;br&gt;&lt;/span&gt;" style="rounded=0;whiteSpace=wrap;html=1;align=right;" parent="cFaB45KztUIKXS-_cTrr-14" vertex="1">
          <mxGeometry x="887" y="2254" width="170" height="48" as="geometry" />
        </mxCell>
        <mxCell id="81jv1HNxyphZJET-4Zs3-29" value="&lt;span style=&quot;font-size: 30px;&quot;&gt;－&lt;/span&gt;" style="rounded=0;whiteSpace=wrap;html=1;align=right;dashed=1;dashPattern=8 8;verticalAlign=bottom;" parent="cFaB45KztUIKXS-_cTrr-14" vertex="1">
          <mxGeometry x="838" y="2256" width="40" height="46" as="geometry" />
        </mxCell>
        <mxCell id="81jv1HNxyphZJET-4Zs3-30" value="&lt;font style=&quot;font-size: 30px;&quot;&gt;0123&lt;/font&gt;" style="rounded=0;whiteSpace=wrap;html=1;align=right;fillColor=#CCCCCC;" parent="cFaB45KztUIKXS-_cTrr-14" vertex="1">
          <mxGeometry x="349" y="330" width="170" height="48" as="geometry" />
        </mxCell>
        <mxCell id="81jv1HNxyphZJET-4Zs3-31" value="&lt;span style=&quot;font-size: 30px;&quot;&gt;電話番号&lt;/span&gt;" style="rounded=0;whiteSpace=wrap;html=1;align=right;dashed=1;dashPattern=8 8;verticalAlign=bottom;" parent="cFaB45KztUIKXS-_cTrr-14" vertex="1">
          <mxGeometry x="19" y="332" width="310" height="46" as="geometry" />
        </mxCell>
        <mxCell id="81jv1HNxyphZJET-4Zs3-32" value="&lt;span style=&quot;font-size: 30px;&quot;&gt;45&lt;br&gt;&lt;/span&gt;" style="rounded=0;whiteSpace=wrap;html=1;align=right;fillColor=#CCCCCC;" parent="cFaB45KztUIKXS-_cTrr-14" vertex="1">
          <mxGeometry x="579" y="330" width="170" height="48" as="geometry" />
        </mxCell>
        <mxCell id="81jv1HNxyphZJET-4Zs3-33" value="&lt;span style=&quot;font-size: 30px;&quot;&gt;－&lt;/span&gt;" style="rounded=0;whiteSpace=wrap;html=1;align=right;dashed=1;dashPattern=8 8;verticalAlign=bottom;" parent="cFaB45KztUIKXS-_cTrr-14" vertex="1">
          <mxGeometry x="530" y="332" width="40" height="46" as="geometry" />
        </mxCell>
        <mxCell id="81jv1HNxyphZJET-4Zs3-34" value="&lt;span style=&quot;font-size: 30px;&quot;&gt;678z&lt;br&gt;&lt;/span&gt;" style="rounded=0;whiteSpace=wrap;html=1;align=right;fillColor=#CCCCCC;" parent="cFaB45KztUIKXS-_cTrr-14" vertex="1">
          <mxGeometry x="819" y="330" width="170" height="48" as="geometry" />
        </mxCell>
        <mxCell id="81jv1HNxyphZJET-4Zs3-35" value="&lt;span style=&quot;font-size: 30px;&quot;&gt;－&lt;/span&gt;" style="rounded=0;whiteSpace=wrap;html=1;align=right;dashed=1;dashPattern=8 8;verticalAlign=bottom;" parent="cFaB45KztUIKXS-_cTrr-14" vertex="1">
          <mxGeometry x="770" y="332" width="40" height="46" as="geometry" />
        </mxCell>
        <mxCell id="81jv1HNxyphZJET-4Zs3-36" value="&lt;font style=&quot;font-size: 30px;&quot;&gt;0123&lt;/font&gt;" style="rounded=0;whiteSpace=wrap;html=1;align=right;" parent="cFaB45KztUIKXS-_cTrr-14" vertex="1">
          <mxGeometry x="420" y="960" width="170" height="48" as="geometry" />
        </mxCell>
        <mxCell id="81jv1HNxyphZJET-4Zs3-37" value="&lt;span style=&quot;font-size: 30px;&quot;&gt;電話番号&lt;/span&gt;" style="rounded=0;whiteSpace=wrap;html=1;align=right;dashed=1;dashPattern=8 8;verticalAlign=bottom;" parent="cFaB45KztUIKXS-_cTrr-14" vertex="1">
          <mxGeometry x="90" y="962" width="310" height="46" as="geometry" />
        </mxCell>
        <mxCell id="81jv1HNxyphZJET-4Zs3-38" value="&lt;span style=&quot;font-size: 30px;&quot;&gt;45&lt;br&gt;&lt;/span&gt;" style="rounded=0;whiteSpace=wrap;html=1;align=right;" parent="cFaB45KztUIKXS-_cTrr-14" vertex="1">
          <mxGeometry x="650" y="960" width="170" height="48" as="geometry" />
        </mxCell>
        <mxCell id="81jv1HNxyphZJET-4Zs3-39" value="&lt;span style=&quot;font-size: 30px;&quot;&gt;－&lt;/span&gt;" style="rounded=0;whiteSpace=wrap;html=1;align=right;dashed=1;dashPattern=8 8;verticalAlign=bottom;" parent="cFaB45KztUIKXS-_cTrr-14" vertex="1">
          <mxGeometry x="601" y="962" width="40" height="46" as="geometry" />
        </mxCell>
        <mxCell id="81jv1HNxyphZJET-4Zs3-40" value="&lt;span style=&quot;font-size: 30px;&quot;&gt;678z&lt;br&gt;&lt;/span&gt;" style="rounded=0;whiteSpace=wrap;html=1;align=right;" parent="cFaB45KztUIKXS-_cTrr-14" vertex="1">
          <mxGeometry x="890" y="960" width="170" height="48" as="geometry" />
        </mxCell>
        <mxCell id="81jv1HNxyphZJET-4Zs3-41" value="&lt;span style=&quot;font-size: 30px;&quot;&gt;－&lt;/span&gt;" style="rounded=0;whiteSpace=wrap;html=1;align=right;dashed=1;dashPattern=8 8;verticalAlign=bottom;" parent="cFaB45KztUIKXS-_cTrr-14" vertex="1">
          <mxGeometry x="841" y="962" width="40" height="46" as="geometry" />
        </mxCell>
        <mxCell id="81jv1HNxyphZJET-4Zs3-42" value="&lt;font style=&quot;font-size: 30px;&quot;&gt;0123&lt;/font&gt;" style="rounded=0;whiteSpace=wrap;html=1;align=right;" parent="cFaB45KztUIKXS-_cTrr-14" vertex="1">
          <mxGeometry x="420" y="1610" width="170" height="48" as="geometry" />
        </mxCell>
        <mxCell id="81jv1HNxyphZJET-4Zs3-43" value="&lt;span style=&quot;font-size: 30px;&quot;&gt;電話番号&lt;/span&gt;" style="rounded=0;whiteSpace=wrap;html=1;align=right;dashed=1;dashPattern=8 8;verticalAlign=bottom;" parent="cFaB45KztUIKXS-_cTrr-14" vertex="1">
          <mxGeometry x="90" y="1612" width="310" height="46" as="geometry" />
        </mxCell>
        <mxCell id="81jv1HNxyphZJET-4Zs3-44" value="&lt;span style=&quot;font-size: 30px;&quot;&gt;45&lt;br&gt;&lt;/span&gt;" style="rounded=0;whiteSpace=wrap;html=1;align=right;" parent="cFaB45KztUIKXS-_cTrr-14" vertex="1">
          <mxGeometry x="650" y="1610" width="170" height="48" as="geometry" />
        </mxCell>
        <mxCell id="81jv1HNxyphZJET-4Zs3-45" value="&lt;span style=&quot;font-size: 30px;&quot;&gt;－&lt;/span&gt;" style="rounded=0;whiteSpace=wrap;html=1;align=right;dashed=1;dashPattern=8 8;verticalAlign=bottom;" parent="cFaB45KztUIKXS-_cTrr-14" vertex="1">
          <mxGeometry x="601" y="1612" width="40" height="46" as="geometry" />
        </mxCell>
        <mxCell id="81jv1HNxyphZJET-4Zs3-46" value="&lt;span style=&quot;font-size: 30px;&quot;&gt;678z&lt;br&gt;&lt;/span&gt;" style="rounded=0;whiteSpace=wrap;html=1;align=right;" parent="cFaB45KztUIKXS-_cTrr-14" vertex="1">
          <mxGeometry x="890" y="1610" width="170" height="48" as="geometry" />
        </mxCell>
        <mxCell id="81jv1HNxyphZJET-4Zs3-47" value="&lt;span style=&quot;font-size: 30px;&quot;&gt;－&lt;/span&gt;" style="rounded=0;whiteSpace=wrap;html=1;align=right;dashed=1;dashPattern=8 8;verticalAlign=bottom;" parent="cFaB45KztUIKXS-_cTrr-14" vertex="1">
          <mxGeometry x="841" y="1612" width="40" height="46" as="geometry" />
        </mxCell>
        <mxCell id="81jv1HNxyphZJET-4Zs3-48" value="&lt;span style=&quot;font-size: 30px;&quot;&gt;事務担当者2の氏名&lt;/span&gt;" style="rounded=0;whiteSpace=wrap;html=1;align=right;dashed=1;dashPattern=8 8;verticalAlign=bottom;" parent="cFaB45KztUIKXS-_cTrr-14" vertex="1">
          <mxGeometry x="120" y="2826" width="290" height="46" as="geometry" />
        </mxCell>
        <mxCell id="81jv1HNxyphZJET-4Zs3-49" value="&lt;span style=&quot;font-size: 30px;&quot;&gt;&lt;b&gt;事務担当者2の入力項目&lt;/b&gt;&lt;/span&gt;" style="rounded=0;whiteSpace=wrap;html=1;align=left;dashed=1;dashPattern=8 8;verticalAlign=bottom;" parent="cFaB45KztUIKXS-_cTrr-14" vertex="1">
          <mxGeometry x="60" y="2766" width="520" height="46" as="geometry" />
        </mxCell>
        <mxCell id="81jv1HNxyphZJET-4Zs3-50" value="&lt;span style=&quot;font-size: 30px;&quot;&gt;政治団体&lt;/span&gt;" style="rounded=0;whiteSpace=wrap;html=1;align=left;" parent="cFaB45KztUIKXS-_cTrr-14" vertex="1">
          <mxGeometry x="430" y="2828" width="250" height="48" as="geometry" />
        </mxCell>
        <mxCell id="81jv1HNxyphZJET-4Zs3-51" value="&lt;span style=&quot;font-size: 30px;&quot;&gt;太郎&lt;/span&gt;" style="rounded=0;whiteSpace=wrap;html=1;align=left;" parent="cFaB45KztUIKXS-_cTrr-14" vertex="1">
          <mxGeometry x="760" y="2828" width="250" height="48" as="geometry" />
        </mxCell>
        <mxCell id="81jv1HNxyphZJET-4Zs3-52" value="&lt;span style=&quot;font-size: 30px;&quot;&gt;(姓)&lt;/span&gt;" style="rounded=0;whiteSpace=wrap;html=1;align=right;dashed=1;dashPattern=8 8;verticalAlign=bottom;" parent="cFaB45KztUIKXS-_cTrr-14" vertex="1">
          <mxGeometry x="684" y="2829" width="50" height="46" as="geometry" />
        </mxCell>
        <mxCell id="81jv1HNxyphZJET-4Zs3-53" value="&lt;span style=&quot;font-size: 30px;&quot;&gt;(名)&lt;/span&gt;" style="rounded=0;whiteSpace=wrap;html=1;align=right;dashed=1;dashPattern=8 8;verticalAlign=bottom;" parent="cFaB45KztUIKXS-_cTrr-14" vertex="1">
          <mxGeometry x="1014" y="2829" width="50" height="46" as="geometry" />
        </mxCell>
        <mxCell id="81jv1HNxyphZJET-4Zs3-54" value="&lt;font style=&quot;font-size: 30px;&quot;&gt;0123&lt;/font&gt;" style="rounded=0;whiteSpace=wrap;html=1;align=right;" parent="cFaB45KztUIKXS-_cTrr-14" vertex="1">
          <mxGeometry x="427" y="2893" width="170" height="48" as="geometry" />
        </mxCell>
        <mxCell id="81jv1HNxyphZJET-4Zs3-55" value="&lt;span style=&quot;font-size: 30px;&quot;&gt;電話番号&lt;/span&gt;" style="rounded=0;whiteSpace=wrap;html=1;align=right;dashed=1;dashPattern=8 8;verticalAlign=bottom;" parent="cFaB45KztUIKXS-_cTrr-14" vertex="1">
          <mxGeometry x="97" y="2895" width="310" height="46" as="geometry" />
        </mxCell>
        <mxCell id="81jv1HNxyphZJET-4Zs3-56" value="&lt;span style=&quot;font-size: 30px;&quot;&gt;45&lt;br&gt;&lt;/span&gt;" style="rounded=0;whiteSpace=wrap;html=1;align=right;" parent="cFaB45KztUIKXS-_cTrr-14" vertex="1">
          <mxGeometry x="657" y="2893" width="170" height="48" as="geometry" />
        </mxCell>
        <mxCell id="81jv1HNxyphZJET-4Zs3-57" value="&lt;span style=&quot;font-size: 30px;&quot;&gt;－&lt;/span&gt;" style="rounded=0;whiteSpace=wrap;html=1;align=right;dashed=1;dashPattern=8 8;verticalAlign=bottom;" parent="cFaB45KztUIKXS-_cTrr-14" vertex="1">
          <mxGeometry x="608" y="2895" width="40" height="46" as="geometry" />
        </mxCell>
        <mxCell id="81jv1HNxyphZJET-4Zs3-58" value="&lt;span style=&quot;font-size: 30px;&quot;&gt;678z&lt;br&gt;&lt;/span&gt;" style="rounded=0;whiteSpace=wrap;html=1;align=right;" parent="cFaB45KztUIKXS-_cTrr-14" vertex="1">
          <mxGeometry x="897" y="2893" width="170" height="48" as="geometry" />
        </mxCell>
        <mxCell id="81jv1HNxyphZJET-4Zs3-59" value="&lt;span style=&quot;font-size: 30px;&quot;&gt;－&lt;/span&gt;" style="rounded=0;whiteSpace=wrap;html=1;align=right;dashed=1;dashPattern=8 8;verticalAlign=bottom;" parent="cFaB45KztUIKXS-_cTrr-14" vertex="1">
          <mxGeometry x="848" y="2895" width="40" height="46" as="geometry" />
        </mxCell>
        <mxCell id="81jv1HNxyphZJET-4Zs3-60" value="" style="rounded=0;whiteSpace=wrap;html=1;align=left;" parent="cFaB45KztUIKXS-_cTrr-14" vertex="1">
          <mxGeometry x="1080" y="2828" width="250" height="48" as="geometry" />
        </mxCell>
        <mxCell id="81jv1HNxyphZJET-4Zs3-61" value="&lt;span style=&quot;font-size: 30px;&quot;&gt;(ミドルネーム)&lt;/span&gt;" style="rounded=0;whiteSpace=wrap;html=1;align=right;dashed=1;dashPattern=8 8;verticalAlign=bottom;" parent="cFaB45KztUIKXS-_cTrr-14" vertex="1">
          <mxGeometry x="1334" y="2829" width="206" height="46" as="geometry" />
        </mxCell>
        <mxCell id="81jv1HNxyphZJET-4Zs3-62" value="&lt;span style=&quot;font-size: 30px;&quot;&gt;事務担当者3の氏名&lt;/span&gt;" style="rounded=0;whiteSpace=wrap;html=1;align=right;dashed=1;dashPattern=8 8;verticalAlign=bottom;" parent="cFaB45KztUIKXS-_cTrr-14" vertex="1">
          <mxGeometry x="120" y="3026" width="290" height="46" as="geometry" />
        </mxCell>
        <mxCell id="81jv1HNxyphZJET-4Zs3-63" value="&lt;span style=&quot;font-size: 30px;&quot;&gt;&lt;b&gt;事務担当者3の入力項目&lt;/b&gt;&lt;/span&gt;" style="rounded=0;whiteSpace=wrap;html=1;align=left;dashed=1;dashPattern=8 8;verticalAlign=bottom;" parent="cFaB45KztUIKXS-_cTrr-14" vertex="1">
          <mxGeometry x="60" y="2966" width="520" height="46" as="geometry" />
        </mxCell>
        <mxCell id="81jv1HNxyphZJET-4Zs3-64" value="&lt;span style=&quot;font-size: 30px;&quot;&gt;政治団体&lt;/span&gt;" style="rounded=0;whiteSpace=wrap;html=1;align=left;" parent="cFaB45KztUIKXS-_cTrr-14" vertex="1">
          <mxGeometry x="430" y="3028" width="250" height="48" as="geometry" />
        </mxCell>
        <mxCell id="81jv1HNxyphZJET-4Zs3-65" value="&lt;span style=&quot;font-size: 30px;&quot;&gt;太郎&lt;/span&gt;" style="rounded=0;whiteSpace=wrap;html=1;align=left;" parent="cFaB45KztUIKXS-_cTrr-14" vertex="1">
          <mxGeometry x="760" y="3028" width="250" height="48" as="geometry" />
        </mxCell>
        <mxCell id="81jv1HNxyphZJET-4Zs3-66" value="&lt;span style=&quot;font-size: 30px;&quot;&gt;(姓)&lt;/span&gt;" style="rounded=0;whiteSpace=wrap;html=1;align=right;dashed=1;dashPattern=8 8;verticalAlign=bottom;" parent="cFaB45KztUIKXS-_cTrr-14" vertex="1">
          <mxGeometry x="684" y="3029" width="50" height="46" as="geometry" />
        </mxCell>
        <mxCell id="81jv1HNxyphZJET-4Zs3-67" value="&lt;span style=&quot;font-size: 30px;&quot;&gt;(名)&lt;/span&gt;" style="rounded=0;whiteSpace=wrap;html=1;align=right;dashed=1;dashPattern=8 8;verticalAlign=bottom;" parent="cFaB45KztUIKXS-_cTrr-14" vertex="1">
          <mxGeometry x="1014" y="3029" width="50" height="46" as="geometry" />
        </mxCell>
        <mxCell id="81jv1HNxyphZJET-4Zs3-68" value="&lt;font style=&quot;font-size: 30px;&quot;&gt;0123&lt;/font&gt;" style="rounded=0;whiteSpace=wrap;html=1;align=right;" parent="cFaB45KztUIKXS-_cTrr-14" vertex="1">
          <mxGeometry x="427" y="3093" width="170" height="48" as="geometry" />
        </mxCell>
        <mxCell id="81jv1HNxyphZJET-4Zs3-69" value="&lt;span style=&quot;font-size: 30px;&quot;&gt;電話番号&lt;/span&gt;" style="rounded=0;whiteSpace=wrap;html=1;align=right;dashed=1;dashPattern=8 8;verticalAlign=bottom;" parent="cFaB45KztUIKXS-_cTrr-14" vertex="1">
          <mxGeometry x="97" y="3095" width="310" height="46" as="geometry" />
        </mxCell>
        <mxCell id="81jv1HNxyphZJET-4Zs3-70" value="&lt;span style=&quot;font-size: 30px;&quot;&gt;45&lt;br&gt;&lt;/span&gt;" style="rounded=0;whiteSpace=wrap;html=1;align=right;" parent="cFaB45KztUIKXS-_cTrr-14" vertex="1">
          <mxGeometry x="657" y="3093" width="170" height="48" as="geometry" />
        </mxCell>
        <mxCell id="81jv1HNxyphZJET-4Zs3-71" value="&lt;span style=&quot;font-size: 30px;&quot;&gt;－&lt;/span&gt;" style="rounded=0;whiteSpace=wrap;html=1;align=right;dashed=1;dashPattern=8 8;verticalAlign=bottom;" parent="cFaB45KztUIKXS-_cTrr-14" vertex="1">
          <mxGeometry x="608" y="3095" width="40" height="46" as="geometry" />
        </mxCell>
        <mxCell id="81jv1HNxyphZJET-4Zs3-72" value="&lt;span style=&quot;font-size: 30px;&quot;&gt;678z&lt;br&gt;&lt;/span&gt;" style="rounded=0;whiteSpace=wrap;html=1;align=right;" parent="cFaB45KztUIKXS-_cTrr-14" vertex="1">
          <mxGeometry x="897" y="3093" width="170" height="48" as="geometry" />
        </mxCell>
        <mxCell id="81jv1HNxyphZJET-4Zs3-73" value="&lt;span style=&quot;font-size: 30px;&quot;&gt;－&lt;/span&gt;" style="rounded=0;whiteSpace=wrap;html=1;align=right;dashed=1;dashPattern=8 8;verticalAlign=bottom;" parent="cFaB45KztUIKXS-_cTrr-14" vertex="1">
          <mxGeometry x="848" y="3095" width="40" height="46" as="geometry" />
        </mxCell>
        <mxCell id="81jv1HNxyphZJET-4Zs3-74" value="" style="rounded=0;whiteSpace=wrap;html=1;align=left;" parent="cFaB45KztUIKXS-_cTrr-14" vertex="1">
          <mxGeometry x="1090" y="3028" width="250" height="48" as="geometry" />
        </mxCell>
        <mxCell id="81jv1HNxyphZJET-4Zs3-75" value="&lt;span style=&quot;font-size: 30px;&quot;&gt;(ミドルネーム)&lt;/span&gt;" style="rounded=0;whiteSpace=wrap;html=1;align=right;dashed=1;dashPattern=8 8;verticalAlign=bottom;" parent="cFaB45KztUIKXS-_cTrr-14" vertex="1">
          <mxGeometry x="1344" y="3029" width="206" height="46" as="geometry" />
        </mxCell>
        <mxCell id="81jv1HNxyphZJET-4Zs3-76" value="" style="rounded=0;whiteSpace=wrap;html=1;align=left;" parent="cFaB45KztUIKXS-_cTrr-14" vertex="1">
          <mxGeometry x="1060" y="2189" width="250" height="48" as="geometry" />
        </mxCell>
        <mxCell id="81jv1HNxyphZJET-4Zs3-77" value="&lt;span style=&quot;font-size: 30px;&quot;&gt;(ミドルネーム)&lt;/span&gt;" style="rounded=0;whiteSpace=wrap;html=1;align=right;dashed=1;dashPattern=8 8;verticalAlign=bottom;" parent="cFaB45KztUIKXS-_cTrr-14" vertex="1">
          <mxGeometry x="1314" y="2190" width="206" height="46" as="geometry" />
        </mxCell>
        <mxCell id="81jv1HNxyphZJET-4Zs3-78" value="" style="rounded=0;whiteSpace=wrap;html=1;align=left;" parent="cFaB45KztUIKXS-_cTrr-14" vertex="1">
          <mxGeometry x="1070" y="1545" width="250" height="48" as="geometry" />
        </mxCell>
        <mxCell id="81jv1HNxyphZJET-4Zs3-79" value="&lt;span style=&quot;font-size: 30px;&quot;&gt;(ミドルネーム)&lt;/span&gt;" style="rounded=0;whiteSpace=wrap;html=1;align=right;dashed=1;dashPattern=8 8;verticalAlign=bottom;" parent="cFaB45KztUIKXS-_cTrr-14" vertex="1">
          <mxGeometry x="1324" y="1546" width="206" height="46" as="geometry" />
        </mxCell>
        <mxCell id="81jv1HNxyphZJET-4Zs3-80" value="" style="rounded=0;whiteSpace=wrap;html=1;align=left;" parent="cFaB45KztUIKXS-_cTrr-14" vertex="1">
          <mxGeometry x="1070" y="905" width="250" height="48" as="geometry" />
        </mxCell>
        <mxCell id="81jv1HNxyphZJET-4Zs3-81" value="&lt;span style=&quot;font-size: 30px;&quot;&gt;(ミドルネーム)&lt;/span&gt;" style="rounded=0;whiteSpace=wrap;html=1;align=right;dashed=1;dashPattern=8 8;verticalAlign=bottom;" parent="cFaB45KztUIKXS-_cTrr-14" vertex="1">
          <mxGeometry x="1324" y="906" width="206" height="46" as="geometry" />
        </mxCell>
        <mxCell id="81jv1HNxyphZJET-4Zs3-82" value="" style="rounded=0;whiteSpace=wrap;html=1;align=left;fillColor=#CCCCCC;" parent="cFaB45KztUIKXS-_cTrr-14" vertex="1">
          <mxGeometry x="990" y="269" width="250" height="48" as="geometry" />
        </mxCell>
        <mxCell id="81jv1HNxyphZJET-4Zs3-83" value="&lt;span style=&quot;font-size: 30px;&quot;&gt;(ミドルネーム)&lt;/span&gt;" style="rounded=0;whiteSpace=wrap;html=1;align=right;dashed=1;dashPattern=8 8;verticalAlign=bottom;" parent="cFaB45KztUIKXS-_cTrr-14" vertex="1">
          <mxGeometry x="1244" y="270" width="206" height="46" as="geometry" />
        </mxCell>
        <mxCell id="81jv1HNxyphZJET-4Zs3-89" value="&lt;span style=&quot;font-size: 30px;&quot;&gt;使用目的&lt;/span&gt;" style="rounded=0;whiteSpace=wrap;html=1;align=right;dashed=1;dashPattern=8 8;verticalAlign=bottom;" parent="cFaB45KztUIKXS-_cTrr-14" vertex="1">
          <mxGeometry x="60" y="80" width="276" height="41" as="geometry" />
        </mxCell>
        <mxCell id="81jv1HNxyphZJET-4Zs3-90" value="&lt;font style=&quot;font-size: 84px;&quot;&gt;○&lt;/font&gt;" style="text;html=1;strokeColor=none;fillColor=none;align=center;verticalAlign=middle;whiteSpace=wrap;rounded=0;fontSize=60;" parent="cFaB45KztUIKXS-_cTrr-14" vertex="1">
          <mxGeometry x="348" y="78" width="60" height="30" as="geometry" />
        </mxCell>
        <mxCell id="81jv1HNxyphZJET-4Zs3-91" value="&lt;font style=&quot;font-size: 48px;&quot;&gt;●&lt;/font&gt;" style="text;html=1;strokeColor=none;fillColor=none;align=center;verticalAlign=middle;whiteSpace=wrap;rounded=0;fontSize=48;" parent="cFaB45KztUIKXS-_cTrr-14" vertex="1">
          <mxGeometry x="348" y="80" width="60" height="30" as="geometry" />
        </mxCell>
        <mxCell id="81jv1HNxyphZJET-4Zs3-92" value="&lt;font style=&quot;font-size: 84px;&quot;&gt;○&lt;/font&gt;" style="text;html=1;strokeColor=none;fillColor=none;align=center;verticalAlign=middle;whiteSpace=wrap;rounded=0;fontSize=60;" parent="cFaB45KztUIKXS-_cTrr-14" vertex="1">
          <mxGeometry x="628" y="78" width="60" height="30" as="geometry" />
        </mxCell>
        <mxCell id="81jv1HNxyphZJET-4Zs3-93" value="&lt;font style=&quot;font-size: 30px;&quot;&gt;政治団体設立届&lt;/font&gt;" style="text;html=1;strokeColor=none;fillColor=none;align=left;verticalAlign=middle;whiteSpace=wrap;rounded=0;" parent="cFaB45KztUIKXS-_cTrr-14" vertex="1">
          <mxGeometry x="683" y="70" width="347" height="60" as="geometry" />
        </mxCell>
        <mxCell id="81jv1HNxyphZJET-4Zs3-94" value="&lt;span style=&quot;font-size: 30px;&quot;&gt;政治収支報告書&lt;br&gt;&lt;/span&gt;" style="text;html=1;strokeColor=none;fillColor=none;align=left;verticalAlign=middle;whiteSpace=wrap;rounded=0;" parent="cFaB45KztUIKXS-_cTrr-14" vertex="1">
          <mxGeometry x="398" y="69" width="382" height="60" as="geometry" />
        </mxCell>
        <mxCell id="MHljqBQrS4U0nYCGbYE--0" value="&lt;span style=&quot;font-size: 30px;&quot;&gt;政治団体&lt;/span&gt;" style="rounded=0;whiteSpace=wrap;html=1;align=left;" parent="cFaB45KztUIKXS-_cTrr-14" vertex="1">
          <mxGeometry x="430" y="3988" width="250" height="48" as="geometry" />
        </mxCell>
        <mxCell id="MHljqBQrS4U0nYCGbYE--1" value="&lt;span style=&quot;font-size: 30px;&quot;&gt;太郎&lt;/span&gt;" style="rounded=0;whiteSpace=wrap;html=1;align=left;" parent="cFaB45KztUIKXS-_cTrr-14" vertex="1">
          <mxGeometry x="760" y="3988" width="250" height="48" as="geometry" />
        </mxCell>
        <mxCell id="MHljqBQrS4U0nYCGbYE--2" value="&lt;span style=&quot;font-size: 30px;&quot;&gt;(姓)&lt;/span&gt;" style="rounded=0;whiteSpace=wrap;html=1;align=right;dashed=1;dashPattern=8 8;verticalAlign=bottom;" parent="cFaB45KztUIKXS-_cTrr-14" vertex="1">
          <mxGeometry x="684" y="3989" width="50" height="46" as="geometry" />
        </mxCell>
        <mxCell id="MHljqBQrS4U0nYCGbYE--3" value="&lt;span style=&quot;font-size: 30px;&quot;&gt;(名)&lt;/span&gt;" style="rounded=0;whiteSpace=wrap;html=1;align=right;dashed=1;dashPattern=8 8;verticalAlign=bottom;" parent="cFaB45KztUIKXS-_cTrr-14" vertex="1">
          <mxGeometry x="1014" y="3989" width="50" height="46" as="geometry" />
        </mxCell>
        <mxCell id="MHljqBQrS4U0nYCGbYE--4" value="" style="rounded=0;whiteSpace=wrap;html=1;align=left;" parent="cFaB45KztUIKXS-_cTrr-14" vertex="1">
          <mxGeometry x="1080" y="3988" width="250" height="48" as="geometry" />
        </mxCell>
        <mxCell id="MHljqBQrS4U0nYCGbYE--5" value="&lt;span style=&quot;font-size: 30px;&quot;&gt;(ミドルネーム)&lt;/span&gt;" style="rounded=0;whiteSpace=wrap;html=1;align=right;dashed=1;dashPattern=8 8;verticalAlign=bottom;" parent="cFaB45KztUIKXS-_cTrr-14" vertex="1">
          <mxGeometry x="1334" y="3989" width="206" height="46" as="geometry" />
        </mxCell>
        <mxCell id="MHljqBQrS4U0nYCGbYE--6" value="&lt;span style=&quot;font-size: 30px;&quot;&gt;政治団体&lt;/span&gt;" style="rounded=0;whiteSpace=wrap;html=1;align=left;" parent="cFaB45KztUIKXS-_cTrr-14" vertex="1">
          <mxGeometry x="430" y="4058" width="250" height="48" as="geometry" />
        </mxCell>
        <mxCell id="MHljqBQrS4U0nYCGbYE--7" value="&lt;span style=&quot;font-size: 30px;&quot;&gt;太郎&lt;/span&gt;" style="rounded=0;whiteSpace=wrap;html=1;align=left;" parent="cFaB45KztUIKXS-_cTrr-14" vertex="1">
          <mxGeometry x="760" y="4058" width="250" height="48" as="geometry" />
        </mxCell>
        <mxCell id="MHljqBQrS4U0nYCGbYE--8" value="&lt;span style=&quot;font-size: 30px;&quot;&gt;(姓)&lt;/span&gt;" style="rounded=0;whiteSpace=wrap;html=1;align=right;dashed=1;dashPattern=8 8;verticalAlign=bottom;" parent="cFaB45KztUIKXS-_cTrr-14" vertex="1">
          <mxGeometry x="684" y="4059" width="50" height="46" as="geometry" />
        </mxCell>
        <mxCell id="MHljqBQrS4U0nYCGbYE--9" value="&lt;span style=&quot;font-size: 30px;&quot;&gt;(名)&lt;/span&gt;" style="rounded=0;whiteSpace=wrap;html=1;align=right;dashed=1;dashPattern=8 8;verticalAlign=bottom;" parent="cFaB45KztUIKXS-_cTrr-14" vertex="1">
          <mxGeometry x="1014" y="4059" width="50" height="46" as="geometry" />
        </mxCell>
        <mxCell id="MHljqBQrS4U0nYCGbYE--10" value="" style="rounded=0;whiteSpace=wrap;html=1;align=left;" parent="cFaB45KztUIKXS-_cTrr-14" vertex="1">
          <mxGeometry x="1080" y="4058" width="250" height="48" as="geometry" />
        </mxCell>
        <mxCell id="MHljqBQrS4U0nYCGbYE--11" value="&lt;span style=&quot;font-size: 30px;&quot;&gt;(ミドルネーム)&lt;/span&gt;" style="rounded=0;whiteSpace=wrap;html=1;align=right;dashed=1;dashPattern=8 8;verticalAlign=bottom;" parent="cFaB45KztUIKXS-_cTrr-14" vertex="1">
          <mxGeometry x="1334" y="4059" width="206" height="46" as="geometry" />
        </mxCell>
        <mxCell id="MHljqBQrS4U0nYCGbYE--12" value="&lt;font style=&quot;font-size: 84px;&quot;&gt;○&lt;/font&gt;" style="text;html=1;strokeColor=none;fillColor=none;align=center;verticalAlign=middle;whiteSpace=wrap;rounded=0;fontSize=60;" parent="cFaB45KztUIKXS-_cTrr-14" vertex="1">
          <mxGeometry x="880" y="3900" width="60" height="30" as="geometry" />
        </mxCell>
        <mxCell id="MHljqBQrS4U0nYCGbYE--14" value="&lt;font style=&quot;font-size: 84px;&quot;&gt;○&lt;/font&gt;" style="text;html=1;strokeColor=none;fillColor=none;align=center;verticalAlign=middle;whiteSpace=wrap;rounded=0;fontSize=60;" parent="cFaB45KztUIKXS-_cTrr-14" vertex="1">
          <mxGeometry x="1110" y="3900" width="60" height="30" as="geometry" />
        </mxCell>
        <mxCell id="MHljqBQrS4U0nYCGbYE--15" value="&lt;font style=&quot;font-size: 30px;&quot;&gt;参議院候補者&lt;/font&gt;" style="text;html=1;strokeColor=none;fillColor=none;align=left;verticalAlign=middle;whiteSpace=wrap;rounded=0;" parent="cFaB45KztUIKXS-_cTrr-14" vertex="1">
          <mxGeometry x="1165" y="3892" width="275" height="60" as="geometry" />
        </mxCell>
        <mxCell id="MHljqBQrS4U0nYCGbYE--16" value="&lt;span style=&quot;font-size: 30px;&quot;&gt;衆議院候補者&lt;br&gt;&lt;/span&gt;" style="text;html=1;strokeColor=none;fillColor=none;align=left;verticalAlign=middle;whiteSpace=wrap;rounded=0;" parent="cFaB45KztUIKXS-_cTrr-14" vertex="1">
          <mxGeometry x="930" y="3891" width="220" height="60" as="geometry" />
        </mxCell>
        <mxCell id="MHljqBQrS4U0nYCGbYE--17" value="&lt;span style=&quot;font-size: 30px;&quot;&gt;&lt;b&gt;国会議員現職・候補者1人目&lt;/b&gt;&lt;/span&gt;" style="rounded=0;whiteSpace=wrap;html=1;align=left;dashed=1;dashPattern=8 8;verticalAlign=bottom;" parent="cFaB45KztUIKXS-_cTrr-14" vertex="1">
          <mxGeometry x="50" y="3827" width="520" height="46" as="geometry" />
        </mxCell>
        <mxCell id="MHljqBQrS4U0nYCGbYE--19" value="&lt;span style=&quot;font-size: 30px;&quot;&gt;国会議員の所属または&lt;br&gt;候補者の所属予定&lt;br&gt;&lt;/span&gt;" style="rounded=0;whiteSpace=wrap;html=1;align=right;dashed=1;dashPattern=8 8;verticalAlign=bottom;" parent="cFaB45KztUIKXS-_cTrr-14" vertex="1">
          <mxGeometry x="60" y="4194" width="340" height="76" as="geometry" />
        </mxCell>
        <mxCell id="MHljqBQrS4U0nYCGbYE--20" value="&lt;font style=&quot;font-size: 84px;&quot;&gt;○&lt;/font&gt;" style="text;html=1;strokeColor=none;fillColor=none;align=center;verticalAlign=middle;whiteSpace=wrap;rounded=0;fontSize=60;" parent="cFaB45KztUIKXS-_cTrr-14" vertex="1">
          <mxGeometry x="430" y="4204" width="60" height="30" as="geometry" />
        </mxCell>
        <mxCell id="MHljqBQrS4U0nYCGbYE--21" value="&lt;font style=&quot;font-size: 48px;&quot;&gt;●&lt;/font&gt;" style="text;html=1;strokeColor=none;fillColor=none;align=center;verticalAlign=middle;whiteSpace=wrap;rounded=0;fontSize=48;" parent="cFaB45KztUIKXS-_cTrr-14" vertex="1">
          <mxGeometry x="430" y="4206" width="60" height="30" as="geometry" />
        </mxCell>
        <mxCell id="MHljqBQrS4U0nYCGbYE--22" value="&lt;font style=&quot;font-size: 84px;&quot;&gt;○&lt;/font&gt;" style="text;html=1;strokeColor=none;fillColor=none;align=center;verticalAlign=middle;whiteSpace=wrap;rounded=0;fontSize=60;" parent="cFaB45KztUIKXS-_cTrr-14" vertex="1">
          <mxGeometry x="660" y="4204" width="60" height="30" as="geometry" />
        </mxCell>
        <mxCell id="MHljqBQrS4U0nYCGbYE--23" value="&lt;font style=&quot;font-size: 30px;&quot;&gt;参議院現職&lt;/font&gt;" style="text;html=1;strokeColor=none;fillColor=none;align=left;verticalAlign=middle;whiteSpace=wrap;rounded=0;" parent="cFaB45KztUIKXS-_cTrr-14" vertex="1">
          <mxGeometry x="715" y="4196" width="275" height="60" as="geometry" />
        </mxCell>
        <mxCell id="MHljqBQrS4U0nYCGbYE--24" value="&lt;span style=&quot;font-size: 30px;&quot;&gt;衆議院現職&lt;br&gt;&lt;/span&gt;" style="text;html=1;strokeColor=none;fillColor=none;align=left;verticalAlign=middle;whiteSpace=wrap;rounded=0;" parent="cFaB45KztUIKXS-_cTrr-14" vertex="1">
          <mxGeometry x="480" y="4195" width="220" height="60" as="geometry" />
        </mxCell>
        <mxCell id="MHljqBQrS4U0nYCGbYE--25" value="&lt;span style=&quot;font-size: 30px;&quot;&gt;議員(候補者)名前&lt;/span&gt;" style="rounded=0;whiteSpace=wrap;html=1;align=right;dashed=1;dashPattern=8 8;verticalAlign=bottom;" parent="cFaB45KztUIKXS-_cTrr-14" vertex="1">
          <mxGeometry x="60" y="4293" width="340" height="46" as="geometry" />
        </mxCell>
        <mxCell id="MHljqBQrS4U0nYCGbYE--26" value="&lt;span style=&quot;font-size: 30px;&quot;&gt;名前ふりがな&lt;/span&gt;" style="rounded=0;whiteSpace=wrap;html=1;align=right;dashed=1;dashPattern=8 8;verticalAlign=bottom;" parent="cFaB45KztUIKXS-_cTrr-14" vertex="1">
          <mxGeometry x="60" y="4363" width="340" height="46" as="geometry" />
        </mxCell>
        <mxCell id="MHljqBQrS4U0nYCGbYE--27" value="&lt;span style=&quot;font-size: 30px;&quot;&gt;政治団体&lt;/span&gt;" style="rounded=0;whiteSpace=wrap;html=1;align=left;" parent="cFaB45KztUIKXS-_cTrr-14" vertex="1">
          <mxGeometry x="430" y="4292" width="250" height="48" as="geometry" />
        </mxCell>
        <mxCell id="MHljqBQrS4U0nYCGbYE--28" value="&lt;span style=&quot;font-size: 30px;&quot;&gt;太郎&lt;/span&gt;" style="rounded=0;whiteSpace=wrap;html=1;align=left;" parent="cFaB45KztUIKXS-_cTrr-14" vertex="1">
          <mxGeometry x="760" y="4292" width="250" height="48" as="geometry" />
        </mxCell>
        <mxCell id="MHljqBQrS4U0nYCGbYE--29" value="&lt;span style=&quot;font-size: 30px;&quot;&gt;(姓)&lt;/span&gt;" style="rounded=0;whiteSpace=wrap;html=1;align=right;dashed=1;dashPattern=8 8;verticalAlign=bottom;" parent="cFaB45KztUIKXS-_cTrr-14" vertex="1">
          <mxGeometry x="684" y="4293" width="50" height="46" as="geometry" />
        </mxCell>
        <mxCell id="MHljqBQrS4U0nYCGbYE--30" value="&lt;span style=&quot;font-size: 30px;&quot;&gt;(名)&lt;/span&gt;" style="rounded=0;whiteSpace=wrap;html=1;align=right;dashed=1;dashPattern=8 8;verticalAlign=bottom;" parent="cFaB45KztUIKXS-_cTrr-14" vertex="1">
          <mxGeometry x="1014" y="4293" width="50" height="46" as="geometry" />
        </mxCell>
        <mxCell id="MHljqBQrS4U0nYCGbYE--31" value="" style="rounded=0;whiteSpace=wrap;html=1;align=left;" parent="cFaB45KztUIKXS-_cTrr-14" vertex="1">
          <mxGeometry x="1080" y="4292" width="250" height="48" as="geometry" />
        </mxCell>
        <mxCell id="MHljqBQrS4U0nYCGbYE--32" value="&lt;span style=&quot;font-size: 30px;&quot;&gt;(ミドルネーム)&lt;/span&gt;" style="rounded=0;whiteSpace=wrap;html=1;align=right;dashed=1;dashPattern=8 8;verticalAlign=bottom;" parent="cFaB45KztUIKXS-_cTrr-14" vertex="1">
          <mxGeometry x="1334" y="4293" width="206" height="46" as="geometry" />
        </mxCell>
        <mxCell id="MHljqBQrS4U0nYCGbYE--33" value="&lt;span style=&quot;font-size: 30px;&quot;&gt;政治団体&lt;/span&gt;" style="rounded=0;whiteSpace=wrap;html=1;align=left;" parent="cFaB45KztUIKXS-_cTrr-14" vertex="1">
          <mxGeometry x="430" y="4362" width="250" height="48" as="geometry" />
        </mxCell>
        <mxCell id="MHljqBQrS4U0nYCGbYE--34" value="&lt;span style=&quot;font-size: 30px;&quot;&gt;太郎&lt;/span&gt;" style="rounded=0;whiteSpace=wrap;html=1;align=left;" parent="cFaB45KztUIKXS-_cTrr-14" vertex="1">
          <mxGeometry x="760" y="4362" width="250" height="48" as="geometry" />
        </mxCell>
        <mxCell id="MHljqBQrS4U0nYCGbYE--35" value="&lt;span style=&quot;font-size: 30px;&quot;&gt;(姓)&lt;/span&gt;" style="rounded=0;whiteSpace=wrap;html=1;align=right;dashed=1;dashPattern=8 8;verticalAlign=bottom;" parent="cFaB45KztUIKXS-_cTrr-14" vertex="1">
          <mxGeometry x="684" y="4363" width="50" height="46" as="geometry" />
        </mxCell>
        <mxCell id="MHljqBQrS4U0nYCGbYE--36" value="&lt;span style=&quot;font-size: 30px;&quot;&gt;(名)&lt;/span&gt;" style="rounded=0;whiteSpace=wrap;html=1;align=right;dashed=1;dashPattern=8 8;verticalAlign=bottom;" parent="cFaB45KztUIKXS-_cTrr-14" vertex="1">
          <mxGeometry x="1014" y="4363" width="50" height="46" as="geometry" />
        </mxCell>
        <mxCell id="MHljqBQrS4U0nYCGbYE--37" value="" style="rounded=0;whiteSpace=wrap;html=1;align=left;" parent="cFaB45KztUIKXS-_cTrr-14" vertex="1">
          <mxGeometry x="1080" y="4362" width="250" height="48" as="geometry" />
        </mxCell>
        <mxCell id="MHljqBQrS4U0nYCGbYE--38" value="&lt;span style=&quot;font-size: 30px;&quot;&gt;(ミドルネーム)&lt;/span&gt;" style="rounded=0;whiteSpace=wrap;html=1;align=right;dashed=1;dashPattern=8 8;verticalAlign=bottom;" parent="cFaB45KztUIKXS-_cTrr-14" vertex="1">
          <mxGeometry x="1334" y="4363" width="206" height="46" as="geometry" />
        </mxCell>
        <mxCell id="MHljqBQrS4U0nYCGbYE--39" value="&lt;font style=&quot;font-size: 84px;&quot;&gt;○&lt;/font&gt;" style="text;html=1;strokeColor=none;fillColor=none;align=center;verticalAlign=middle;whiteSpace=wrap;rounded=0;fontSize=60;" parent="cFaB45KztUIKXS-_cTrr-14" vertex="1">
          <mxGeometry x="880" y="4204" width="60" height="30" as="geometry" />
        </mxCell>
        <mxCell id="MHljqBQrS4U0nYCGbYE--40" value="&lt;font style=&quot;font-size: 84px;&quot;&gt;○&lt;/font&gt;" style="text;html=1;strokeColor=none;fillColor=none;align=center;verticalAlign=middle;whiteSpace=wrap;rounded=0;fontSize=60;" parent="cFaB45KztUIKXS-_cTrr-14" vertex="1">
          <mxGeometry x="1110" y="4204" width="60" height="30" as="geometry" />
        </mxCell>
        <mxCell id="MHljqBQrS4U0nYCGbYE--41" value="&lt;font style=&quot;font-size: 30px;&quot;&gt;参議院候補者&lt;/font&gt;" style="text;html=1;strokeColor=none;fillColor=none;align=left;verticalAlign=middle;whiteSpace=wrap;rounded=0;" parent="cFaB45KztUIKXS-_cTrr-14" vertex="1">
          <mxGeometry x="1165" y="4196" width="275" height="60" as="geometry" />
        </mxCell>
        <mxCell id="MHljqBQrS4U0nYCGbYE--42" value="&lt;span style=&quot;font-size: 30px;&quot;&gt;衆議院候補者&lt;br&gt;&lt;/span&gt;" style="text;html=1;strokeColor=none;fillColor=none;align=left;verticalAlign=middle;whiteSpace=wrap;rounded=0;" parent="cFaB45KztUIKXS-_cTrr-14" vertex="1">
          <mxGeometry x="930" y="4195" width="220" height="60" as="geometry" />
        </mxCell>
        <mxCell id="MHljqBQrS4U0nYCGbYE--43" value="&lt;span style=&quot;font-size: 30px;&quot;&gt;&lt;b&gt;国会議員現職・候補者2人目&lt;/b&gt;&lt;/span&gt;" style="rounded=0;whiteSpace=wrap;html=1;align=left;dashed=1;dashPattern=8 8;verticalAlign=bottom;" parent="cFaB45KztUIKXS-_cTrr-14" vertex="1">
          <mxGeometry x="50" y="4131" width="520" height="46" as="geometry" />
        </mxCell>
        <mxCell id="MHljqBQrS4U0nYCGbYE--69" value="&lt;span style=&quot;font-size: 30px;&quot;&gt;国会議員の所属または&lt;br&gt;候補者の所属予定&lt;br&gt;&lt;/span&gt;" style="rounded=0;whiteSpace=wrap;html=1;align=right;dashed=1;dashPattern=8 8;verticalAlign=bottom;" parent="cFaB45KztUIKXS-_cTrr-14" vertex="1">
          <mxGeometry x="60" y="4490" width="340" height="76" as="geometry" />
        </mxCell>
        <mxCell id="MHljqBQrS4U0nYCGbYE--70" value="&lt;font style=&quot;font-size: 84px;&quot;&gt;○&lt;/font&gt;" style="text;html=1;strokeColor=none;fillColor=none;align=center;verticalAlign=middle;whiteSpace=wrap;rounded=0;fontSize=60;" parent="cFaB45KztUIKXS-_cTrr-14" vertex="1">
          <mxGeometry x="430" y="4500" width="60" height="30" as="geometry" />
        </mxCell>
        <mxCell id="MHljqBQrS4U0nYCGbYE--71" value="&lt;font style=&quot;font-size: 48px;&quot;&gt;●&lt;/font&gt;" style="text;html=1;strokeColor=none;fillColor=none;align=center;verticalAlign=middle;whiteSpace=wrap;rounded=0;fontSize=48;" parent="cFaB45KztUIKXS-_cTrr-14" vertex="1">
          <mxGeometry x="430" y="4502" width="60" height="30" as="geometry" />
        </mxCell>
        <mxCell id="MHljqBQrS4U0nYCGbYE--72" value="&lt;font style=&quot;font-size: 84px;&quot;&gt;○&lt;/font&gt;" style="text;html=1;strokeColor=none;fillColor=none;align=center;verticalAlign=middle;whiteSpace=wrap;rounded=0;fontSize=60;" parent="cFaB45KztUIKXS-_cTrr-14" vertex="1">
          <mxGeometry x="660" y="4500" width="60" height="30" as="geometry" />
        </mxCell>
        <mxCell id="MHljqBQrS4U0nYCGbYE--73" value="&lt;font style=&quot;font-size: 30px;&quot;&gt;参議院現職&lt;/font&gt;" style="text;html=1;strokeColor=none;fillColor=none;align=left;verticalAlign=middle;whiteSpace=wrap;rounded=0;" parent="cFaB45KztUIKXS-_cTrr-14" vertex="1">
          <mxGeometry x="715" y="4492" width="275" height="60" as="geometry" />
        </mxCell>
        <mxCell id="MHljqBQrS4U0nYCGbYE--74" value="&lt;span style=&quot;font-size: 30px;&quot;&gt;衆議院現職&lt;br&gt;&lt;/span&gt;" style="text;html=1;strokeColor=none;fillColor=none;align=left;verticalAlign=middle;whiteSpace=wrap;rounded=0;" parent="cFaB45KztUIKXS-_cTrr-14" vertex="1">
          <mxGeometry x="480" y="4491" width="220" height="60" as="geometry" />
        </mxCell>
        <mxCell id="MHljqBQrS4U0nYCGbYE--75" value="&lt;span style=&quot;font-size: 30px;&quot;&gt;議員(候補者)名前&lt;/span&gt;" style="rounded=0;whiteSpace=wrap;html=1;align=right;dashed=1;dashPattern=8 8;verticalAlign=bottom;" parent="cFaB45KztUIKXS-_cTrr-14" vertex="1">
          <mxGeometry x="60" y="4589" width="340" height="46" as="geometry" />
        </mxCell>
        <mxCell id="MHljqBQrS4U0nYCGbYE--76" value="&lt;span style=&quot;font-size: 30px;&quot;&gt;名前ふりがな&lt;/span&gt;" style="rounded=0;whiteSpace=wrap;html=1;align=right;dashed=1;dashPattern=8 8;verticalAlign=bottom;" parent="cFaB45KztUIKXS-_cTrr-14" vertex="1">
          <mxGeometry x="60" y="4659" width="340" height="46" as="geometry" />
        </mxCell>
        <mxCell id="MHljqBQrS4U0nYCGbYE--77" value="&lt;span style=&quot;font-size: 30px;&quot;&gt;政治団体&lt;/span&gt;" style="rounded=0;whiteSpace=wrap;html=1;align=left;" parent="cFaB45KztUIKXS-_cTrr-14" vertex="1">
          <mxGeometry x="430" y="4588" width="250" height="48" as="geometry" />
        </mxCell>
        <mxCell id="MHljqBQrS4U0nYCGbYE--78" value="&lt;span style=&quot;font-size: 30px;&quot;&gt;太郎&lt;/span&gt;" style="rounded=0;whiteSpace=wrap;html=1;align=left;" parent="cFaB45KztUIKXS-_cTrr-14" vertex="1">
          <mxGeometry x="760" y="4588" width="250" height="48" as="geometry" />
        </mxCell>
        <mxCell id="MHljqBQrS4U0nYCGbYE--79" value="&lt;span style=&quot;font-size: 30px;&quot;&gt;(姓)&lt;/span&gt;" style="rounded=0;whiteSpace=wrap;html=1;align=right;dashed=1;dashPattern=8 8;verticalAlign=bottom;" parent="cFaB45KztUIKXS-_cTrr-14" vertex="1">
          <mxGeometry x="684" y="4589" width="50" height="46" as="geometry" />
        </mxCell>
        <mxCell id="MHljqBQrS4U0nYCGbYE--80" value="&lt;span style=&quot;font-size: 30px;&quot;&gt;(名)&lt;/span&gt;" style="rounded=0;whiteSpace=wrap;html=1;align=right;dashed=1;dashPattern=8 8;verticalAlign=bottom;" parent="cFaB45KztUIKXS-_cTrr-14" vertex="1">
          <mxGeometry x="1014" y="4589" width="50" height="46" as="geometry" />
        </mxCell>
        <mxCell id="MHljqBQrS4U0nYCGbYE--81" value="" style="rounded=0;whiteSpace=wrap;html=1;align=left;" parent="cFaB45KztUIKXS-_cTrr-14" vertex="1">
          <mxGeometry x="1080" y="4588" width="250" height="48" as="geometry" />
        </mxCell>
        <mxCell id="MHljqBQrS4U0nYCGbYE--82" value="&lt;span style=&quot;font-size: 30px;&quot;&gt;(ミドルネーム)&lt;/span&gt;" style="rounded=0;whiteSpace=wrap;html=1;align=right;dashed=1;dashPattern=8 8;verticalAlign=bottom;" parent="cFaB45KztUIKXS-_cTrr-14" vertex="1">
          <mxGeometry x="1334" y="4589" width="206" height="46" as="geometry" />
        </mxCell>
        <mxCell id="MHljqBQrS4U0nYCGbYE--83" value="&lt;span style=&quot;font-size: 30px;&quot;&gt;政治団体&lt;/span&gt;" style="rounded=0;whiteSpace=wrap;html=1;align=left;" parent="cFaB45KztUIKXS-_cTrr-14" vertex="1">
          <mxGeometry x="430" y="4658" width="250" height="48" as="geometry" />
        </mxCell>
        <mxCell id="MHljqBQrS4U0nYCGbYE--84" value="&lt;span style=&quot;font-size: 30px;&quot;&gt;太郎&lt;/span&gt;" style="rounded=0;whiteSpace=wrap;html=1;align=left;" parent="cFaB45KztUIKXS-_cTrr-14" vertex="1">
          <mxGeometry x="760" y="4658" width="250" height="48" as="geometry" />
        </mxCell>
        <mxCell id="MHljqBQrS4U0nYCGbYE--85" value="&lt;span style=&quot;font-size: 30px;&quot;&gt;(姓)&lt;/span&gt;" style="rounded=0;whiteSpace=wrap;html=1;align=right;dashed=1;dashPattern=8 8;verticalAlign=bottom;" parent="cFaB45KztUIKXS-_cTrr-14" vertex="1">
          <mxGeometry x="684" y="4659" width="50" height="46" as="geometry" />
        </mxCell>
        <mxCell id="MHljqBQrS4U0nYCGbYE--86" value="&lt;span style=&quot;font-size: 30px;&quot;&gt;(名)&lt;/span&gt;" style="rounded=0;whiteSpace=wrap;html=1;align=right;dashed=1;dashPattern=8 8;verticalAlign=bottom;" parent="cFaB45KztUIKXS-_cTrr-14" vertex="1">
          <mxGeometry x="1014" y="4659" width="50" height="46" as="geometry" />
        </mxCell>
        <mxCell id="MHljqBQrS4U0nYCGbYE--87" value="" style="rounded=0;whiteSpace=wrap;html=1;align=left;" parent="cFaB45KztUIKXS-_cTrr-14" vertex="1">
          <mxGeometry x="1080" y="4658" width="250" height="48" as="geometry" />
        </mxCell>
        <mxCell id="MHljqBQrS4U0nYCGbYE--88" value="&lt;span style=&quot;font-size: 30px;&quot;&gt;(ミドルネーム)&lt;/span&gt;" style="rounded=0;whiteSpace=wrap;html=1;align=right;dashed=1;dashPattern=8 8;verticalAlign=bottom;" parent="cFaB45KztUIKXS-_cTrr-14" vertex="1">
          <mxGeometry x="1334" y="4659" width="206" height="46" as="geometry" />
        </mxCell>
        <mxCell id="MHljqBQrS4U0nYCGbYE--89" value="&lt;font style=&quot;font-size: 84px;&quot;&gt;○&lt;/font&gt;" style="text;html=1;strokeColor=none;fillColor=none;align=center;verticalAlign=middle;whiteSpace=wrap;rounded=0;fontSize=60;" parent="cFaB45KztUIKXS-_cTrr-14" vertex="1">
          <mxGeometry x="880" y="4500" width="60" height="30" as="geometry" />
        </mxCell>
        <mxCell id="MHljqBQrS4U0nYCGbYE--90" value="&lt;font style=&quot;font-size: 84px;&quot;&gt;○&lt;/font&gt;" style="text;html=1;strokeColor=none;fillColor=none;align=center;verticalAlign=middle;whiteSpace=wrap;rounded=0;fontSize=60;" parent="cFaB45KztUIKXS-_cTrr-14" vertex="1">
          <mxGeometry x="1110" y="4500" width="60" height="30" as="geometry" />
        </mxCell>
        <mxCell id="MHljqBQrS4U0nYCGbYE--91" value="&lt;font style=&quot;font-size: 30px;&quot;&gt;参議院候補者&lt;/font&gt;" style="text;html=1;strokeColor=none;fillColor=none;align=left;verticalAlign=middle;whiteSpace=wrap;rounded=0;" parent="cFaB45KztUIKXS-_cTrr-14" vertex="1">
          <mxGeometry x="1165" y="4492" width="275" height="60" as="geometry" />
        </mxCell>
        <mxCell id="MHljqBQrS4U0nYCGbYE--92" value="&lt;span style=&quot;font-size: 30px;&quot;&gt;衆議院候補者&lt;br&gt;&lt;/span&gt;" style="text;html=1;strokeColor=none;fillColor=none;align=left;verticalAlign=middle;whiteSpace=wrap;rounded=0;" parent="cFaB45KztUIKXS-_cTrr-14" vertex="1">
          <mxGeometry x="930" y="4491" width="220" height="60" as="geometry" />
        </mxCell>
        <mxCell id="MHljqBQrS4U0nYCGbYE--93" value="&lt;span style=&quot;font-size: 30px;&quot;&gt;&lt;b&gt;国会議員現職・候補者3人目&lt;/b&gt;&lt;/span&gt;" style="rounded=0;whiteSpace=wrap;html=1;align=left;dashed=1;dashPattern=8 8;verticalAlign=bottom;" parent="cFaB45KztUIKXS-_cTrr-14" vertex="1">
          <mxGeometry x="50" y="4427" width="520" height="46" as="geometry" />
        </mxCell>
        <mxCell id="MHljqBQrS4U0nYCGbYE--94" value="&lt;span style=&quot;font-size: 30px;&quot;&gt;&lt;b&gt;資金管理団体の指定の期間&lt;/b&gt;&lt;/span&gt;" style="rounded=0;whiteSpace=wrap;html=1;align=left;dashed=1;dashPattern=8 8;verticalAlign=bottom;" parent="cFaB45KztUIKXS-_cTrr-14" vertex="1">
          <mxGeometry x="50" y="4737" width="520" height="46" as="geometry" />
        </mxCell>
        <mxCell id="MHljqBQrS4U0nYCGbYE--95" value="&lt;font style=&quot;font-size: 30px;&quot;&gt;20221201&lt;/font&gt;" style="rounded=0;whiteSpace=wrap;html=1;align=right;" parent="cFaB45KztUIKXS-_cTrr-14" vertex="1">
          <mxGeometry x="430" y="4798" width="250" height="48" as="geometry" />
        </mxCell>
        <mxCell id="MHljqBQrS4U0nYCGbYE--96" value="&lt;span style=&quot;font-size: 30px;&quot;&gt;から&lt;/span&gt;" style="rounded=0;whiteSpace=wrap;html=1;align=right;dashed=1;dashPattern=8 8;verticalAlign=bottom;" parent="cFaB45KztUIKXS-_cTrr-14" vertex="1">
          <mxGeometry x="694" y="4799" width="96" height="46" as="geometry" />
        </mxCell>
        <mxCell id="MHljqBQrS4U0nYCGbYE--97" value="&lt;font style=&quot;font-size: 30px;&quot;&gt;20221201&lt;/font&gt;" style="rounded=0;whiteSpace=wrap;html=1;align=right;" parent="cFaB45KztUIKXS-_cTrr-14" vertex="1">
          <mxGeometry x="810" y="4798" width="250" height="48" as="geometry" />
        </mxCell>
        <mxCell id="MHljqBQrS4U0nYCGbYE--98" value="&lt;span style=&quot;font-size: 30px;&quot;&gt;まで&lt;/span&gt;" style="rounded=0;whiteSpace=wrap;html=1;align=right;dashed=1;dashPattern=8 8;verticalAlign=bottom;" parent="cFaB45KztUIKXS-_cTrr-14" vertex="1">
          <mxGeometry x="1074" y="4799" width="96" height="46" as="geometry" />
        </mxCell>
        <mxCell id="MHljqBQrS4U0nYCGbYE--99" value="&lt;font style=&quot;font-size: 30px;&quot;&gt;20221201&lt;/font&gt;" style="rounded=0;whiteSpace=wrap;html=1;align=right;" parent="cFaB45KztUIKXS-_cTrr-14" vertex="1">
          <mxGeometry x="430" y="4859" width="250" height="48" as="geometry" />
        </mxCell>
        <mxCell id="MHljqBQrS4U0nYCGbYE--100" value="&lt;span style=&quot;font-size: 30px;&quot;&gt;から&lt;/span&gt;" style="rounded=0;whiteSpace=wrap;html=1;align=right;dashed=1;dashPattern=8 8;verticalAlign=bottom;" parent="cFaB45KztUIKXS-_cTrr-14" vertex="1">
          <mxGeometry x="694" y="4860" width="96" height="46" as="geometry" />
        </mxCell>
        <mxCell id="MHljqBQrS4U0nYCGbYE--101" value="&lt;font style=&quot;font-size: 30px;&quot;&gt;20221201&lt;/font&gt;" style="rounded=0;whiteSpace=wrap;html=1;align=right;" parent="cFaB45KztUIKXS-_cTrr-14" vertex="1">
          <mxGeometry x="810" y="4859" width="250" height="48" as="geometry" />
        </mxCell>
        <mxCell id="MHljqBQrS4U0nYCGbYE--102" value="&lt;span style=&quot;font-size: 30px;&quot;&gt;まで&lt;/span&gt;" style="rounded=0;whiteSpace=wrap;html=1;align=right;dashed=1;dashPattern=8 8;verticalAlign=bottom;" parent="cFaB45KztUIKXS-_cTrr-14" vertex="1">
          <mxGeometry x="1074" y="4860" width="96" height="46" as="geometry" />
        </mxCell>
        <mxCell id="MHljqBQrS4U0nYCGbYE--103" value="&lt;font style=&quot;font-size: 30px;&quot;&gt;▼2期間&amp;nbsp;&lt;/font&gt;" style="rounded=0;whiteSpace=wrap;html=1;align=left;" parent="cFaB45KztUIKXS-_cTrr-14" vertex="1">
          <mxGeometry x="1140" y="4738" width="250" height="48" as="geometry" />
        </mxCell>
        <mxCell id="MHljqBQrS4U0nYCGbYE--104" value="&lt;span style=&quot;font-size: 30px;&quot;&gt;&lt;b&gt;国会議員政治団体に関する特例期間&lt;/b&gt;&lt;/span&gt;" style="rounded=0;whiteSpace=wrap;html=1;align=left;dashed=1;dashPattern=8 8;verticalAlign=bottom;" parent="cFaB45KztUIKXS-_cTrr-14" vertex="1">
          <mxGeometry x="50" y="4917" width="520" height="46" as="geometry" />
        </mxCell>
        <mxCell id="MHljqBQrS4U0nYCGbYE--105" value="&lt;font style=&quot;font-size: 30px;&quot;&gt;20221201&lt;/font&gt;" style="rounded=0;whiteSpace=wrap;html=1;align=right;" parent="cFaB45KztUIKXS-_cTrr-14" vertex="1">
          <mxGeometry x="430" y="4978" width="250" height="48" as="geometry" />
        </mxCell>
        <mxCell id="MHljqBQrS4U0nYCGbYE--106" value="&lt;span style=&quot;font-size: 30px;&quot;&gt;から&lt;/span&gt;" style="rounded=0;whiteSpace=wrap;html=1;align=right;dashed=1;dashPattern=8 8;verticalAlign=bottom;" parent="cFaB45KztUIKXS-_cTrr-14" vertex="1">
          <mxGeometry x="694" y="4979" width="96" height="46" as="geometry" />
        </mxCell>
        <mxCell id="MHljqBQrS4U0nYCGbYE--107" value="&lt;font style=&quot;font-size: 30px;&quot;&gt;20221201&lt;/font&gt;" style="rounded=0;whiteSpace=wrap;html=1;align=right;" parent="cFaB45KztUIKXS-_cTrr-14" vertex="1">
          <mxGeometry x="810" y="4978" width="250" height="48" as="geometry" />
        </mxCell>
        <mxCell id="MHljqBQrS4U0nYCGbYE--108" value="&lt;span style=&quot;font-size: 30px;&quot;&gt;まで&lt;/span&gt;" style="rounded=0;whiteSpace=wrap;html=1;align=right;dashed=1;dashPattern=8 8;verticalAlign=bottom;" parent="cFaB45KztUIKXS-_cTrr-14" vertex="1">
          <mxGeometry x="1074" y="4979" width="96" height="46" as="geometry" />
        </mxCell>
        <mxCell id="MHljqBQrS4U0nYCGbYE--109" value="&lt;font style=&quot;font-size: 30px;&quot;&gt;20221201&lt;/font&gt;" style="rounded=0;whiteSpace=wrap;html=1;align=right;" parent="cFaB45KztUIKXS-_cTrr-14" vertex="1">
          <mxGeometry x="430" y="5039" width="250" height="48" as="geometry" />
        </mxCell>
        <mxCell id="MHljqBQrS4U0nYCGbYE--110" value="&lt;span style=&quot;font-size: 30px;&quot;&gt;から&lt;/span&gt;" style="rounded=0;whiteSpace=wrap;html=1;align=right;dashed=1;dashPattern=8 8;verticalAlign=bottom;" parent="cFaB45KztUIKXS-_cTrr-14" vertex="1">
          <mxGeometry x="694" y="5040" width="96" height="46" as="geometry" />
        </mxCell>
        <mxCell id="MHljqBQrS4U0nYCGbYE--111" value="&lt;font style=&quot;font-size: 30px;&quot;&gt;20221201&lt;/font&gt;" style="rounded=0;whiteSpace=wrap;html=1;align=right;" parent="cFaB45KztUIKXS-_cTrr-14" vertex="1">
          <mxGeometry x="810" y="5039" width="250" height="48" as="geometry" />
        </mxCell>
        <mxCell id="MHljqBQrS4U0nYCGbYE--112" value="&lt;span style=&quot;font-size: 30px;&quot;&gt;まで&lt;/span&gt;" style="rounded=0;whiteSpace=wrap;html=1;align=right;dashed=1;dashPattern=8 8;verticalAlign=bottom;" parent="cFaB45KztUIKXS-_cTrr-14" vertex="1">
          <mxGeometry x="1074" y="5040" width="96" height="46" as="geometry" />
        </mxCell>
        <mxCell id="MHljqBQrS4U0nYCGbYE--113" value="&lt;font style=&quot;font-size: 30px;&quot;&gt;▼2期間&amp;nbsp;&lt;/font&gt;" style="rounded=0;whiteSpace=wrap;html=1;align=left;" parent="cFaB45KztUIKXS-_cTrr-14" vertex="1">
          <mxGeometry x="1138" y="4918" width="250" height="48" as="geometry" />
        </mxCell>
      </root>
    </mxGraphModel>
  </diagram>
</mxfile>
